<?xml version="1.0" standalone="no"?>
<!DOCTYPE svg PUBLIC "-//W3C//DTD SVG 20010904//EN"
 "http://www.w3.org/TR/2001/REC-SVG-20010904/DTD/svg10.dtd">
<svg version="1.0" xmlns="http://www.w3.org/2000/svg"
 width="276.000000pt" height="276.000000pt" viewBox="0 0 276.000000 276.000000"
 preserveAspectRatio="xMidYMid meet">
<metadata>
Created by potrace 1.14, written by Peter Selinger 2001-2017
</metadata>
<g transform="translate(0.000000,276.000000) scale(0.100000,-0.100000)"
fill="#000000" stroke="none">
<path d="M1945 2643 c-11 -3 -33 -11 -50 -18 -20 -9 -93 -15 -215 -19 -183 -5
-291 -11 -347 -20 -15 -3 -53 -8 -83 -11 -94 -11 -103 -12 -195 -28 -49 -8
-104 -15 -120 -15 -65 -1 -191 -68 -259 -138 -45 -46 -76 -112 -85 -179 l-6
-50 -65 -7 c-196 -21 -238 -33 -262 -74 -18 -30 -25 -34 -64 -34 -24 0 -44 -4
-44 -10 0 -5 19 -7 43 -5 l43 4 -31 -137 c-18 -75 -36 -162 -40 -192 -4 -30
-8 -66 -10 -80 -2 -14 -6 -50 -9 -80 -12 -108 -28 -180 -40 -180 -24 0 -49 39
-50 77 -1 32 3 39 21 41 31 5 44 24 49 79 5 45 4 49 -25 66 -37 22 -39 34 -6
49 13 6 27 18 29 27 18 68 31 201 22 235 -3 13 -15 26 -27 29 -15 4 -20 12
-17 29 2 13 8 23 15 23 6 0 15 3 19 8 4 4 -2 7 -14 7 -12 0 -27 -7 -34 -16 -7
-8 -20 -23 -29 -33 -22 -25 -27 -48 -35 -178 -6 -98 -4 -114 11 -129 16 -16
16 -18 -6 -35 -30 -22 -41 -127 -15 -148 10 -8 16 -29 16 -53 0 -39 13 -57 73
-105 23 -19 13 -112 -14 -131 -19 -13 -20 -22 -16 -146 6 -156 17 -195 52
-188 21 4 25 0 25 -19 0 -13 -6 -32 -14 -41 -9 -12 -12 -45 -10 -105 1 -48 -2
-93 -8 -100 -20 -24 -11 -119 19 -200 13 -37 20 -42 53 -48 21 -4 41 -13 44
-20 3 -10 23 -13 70 -11 75 2 106 -7 106 -29 0 -21 41 -118 53 -126 5 -4 6
-12 2 -19 -5 -8 -4 -11 1 -7 14 8 38 -9 30 -22 -4 -6 -13 -11 -19 -11 -7 0 -6
4 3 11 12 9 12 10 -3 5 -10 -3 -21 -6 -23 -6 -11 0 -2 -17 9 -17 6 0 29 -3 50
-7 28 -4 36 -3 31 6 -5 8 -3 8 7 2 8 -5 69 -9 137 -9 105 0 122 2 122 16 0 24
10 29 36 17 24 -11 33 -28 14 -28 -5 0 -10 4 -10 9 0 5 -7 12 -16 15 -11 4
-14 1 -12 -12 3 -14 14 -17 59 -17 41 0 55 3 52 13 -6 15 -9 15 -35 1 -14 -8
-18 -8 -14 0 4 6 -2 16 -14 23 -11 7 -20 16 -20 21 0 4 4 6 8 3 4 -2 14 0 22
6 13 8 12 9 -1 5 -9 -3 -22 0 -28 6 -8 8 -14 8 -23 -2 -11 -10 -9 -11 7 -5 16
6 18 5 7 -7 -19 -21 -35 2 -18 27 14 19 25 21 143 19 l128 -1 0 41 0 40 80 -1
c44 -1 109 -2 145 -3 l65 -1 13 -37 c21 -63 21 -72 5 -81 -10 -6 -12 -12 -5
-16 6 -3 17 2 24 13 10 14 18 17 28 10 12 -6 12 -9 2 -9 -19 0 -44 -27 -33
-35 5 -3 12 -1 16 5 9 14 28 12 22 -2 -2 -7 -9 -12 -15 -11 -5 1 -12 -3 -15
-10 -6 -17 179 -16 213 1 22 11 23 11 8 -1 -15 -12 -11 -14 37 -14 44 0 55 3
56 16 0 14 1 14 7 0 6 -15 30 -17 199 -16 108 0 190 4 187 9 -3 5 0 15 6 23
18 22 -3 18 -27 -5 -22 -20 -22 -20 -20 0 1 11 5 20 10 20 4 0 6 4 3 9 -3 4 1
17 9 27 10 14 26 19 62 19 l48 1 -1 37 c0 20 2 37 5 38 36 5 64 3 70 -6 15
-19 20 -60 10 -75 -9 -13 -10 -12 -5 2 3 10 0 20 -6 24 -7 4 -8 3 -4 -4 6 -11
0 -14 -20 -11 -4 0 -10 -5 -14 -11 -10 -16 -101 -21 -94 -6 3 6 -2 2 -10 -8
-14 -18 -21 -15 -17 7 1 5 -3 6 -9 2 -6 -3 -8 -11 -5 -16 4 -5 1 -9 -5 -9 -6
0 -8 -5 -4 -11 4 -8 9 -7 15 2 5 8 9 10 9 6 0 -4 9 -3 20 3 16 9 22 8 26 -5 3
-8 10 -15 16 -15 5 0 6 4 3 10 -3 5 -1 10 5 10 7 0 10 -6 7 -12 -2 -7 -11 -12
-20 -12 -9 1 -15 -2 -12 -6 3 -5 1 -11 -5 -15 -5 -3 -10 -1 -10 5 0 7 -5 10
-11 8 -19 -6 -14 -21 9 -24 12 -2 22 1 22 7 0 6 7 8 16 5 8 -3 13 -2 10 3 -3
5 1 12 10 15 8 3 13 9 10 14 -2 4 9 15 25 24 16 10 29 13 29 8 0 -5 -9 -12
-20 -15 -11 -3 -20 -11 -20 -16 0 -12 6 -11 33 2 21 10 21 10 2 -6 -11 -8 -25
-13 -33 -10 -7 2 -10 0 -7 -5 3 -6 1 -10 -4 -10 -6 0 -11 -4 -11 -8 0 -5 7 -9
15 -9 8 0 12 4 9 9 -8 12 10 10 26 -4 11 -10 11 -9 0 6 -14 18 -13 19 5 12 22
-8 25 -9 43 -7 17 1 15 18 -3 18 -8 0 -11 -5 -8 -10 3 -6 1 -7 -5 -3 -9 5 -9
13 -2 27 13 24 22 25 13 2 -3 -10 -3 -15 2 -11 11 11 36 -12 28 -25 -3 -6 -1
-7 6 -3 6 4 9 11 7 15 -3 4 0 13 6 21 8 12 9 12 4 -2 -3 -10 -1 -20 4 -23 14
-8 40 6 33 19 -4 7 -2 7 8 -1 11 -9 19 -9 26 -2 8 8 15 6 24 -4 12 -12 15 -12
26 2 11 14 12 14 13 -4 0 -13 3 -16 8 -8 4 7 35 13 70 15 34 2 62 7 62 12 0 5
7 3 15 -4 8 -7 16 -10 16 -6 1 3 3 11 4 16 1 6 3 15 4 21 0 5 7 7 14 3 9 -5 9
-4 1 5 -17 18 9 87 31 83 15 -3 16 10 10 125 -11 249 -16 283 -50 317 -16 15
-41 17 -229 15 -219 -2 -251 3 -251 38 0 10 -6 19 -12 19 -7 1 -20 2 -28 3 -8
0 -15 5 -15 10 0 4 25 8 56 7 31 0 59 3 62 9 11 18 2 705 -13 1000 -5 85 -9
103 -26 118 -12 9 -26 17 -33 17 -7 0 -11 27 -11 83 0 45 -2 102 -6 125 -5 39
-3 47 26 77 33 36 33 39 20 145 -16 137 -46 208 -96 233 -36 17 -157 30 -194
20z m-1603 -648 c3 0 10 -4 15 -9 4 -5 3 -6 -4 -3 -6 4 -26 -8 -44 -25 -23
-23 -30 -27 -25 -13 5 11 8 29 8 40 -1 16 1 17 8 5 8 -13 10 -12 10 3 0 12 4
16 13 10 6 -4 15 -8 19 -8z m118 -54 c0 -5 9 -7 20 -4 15 4 19 2 14 -10 -3 -8
-1 -18 4 -21 5 -3 9 2 8 12 -1 12 5 16 19 14 11 -2 21 -5 22 -6 3 -3 6 -52 5
-88 -2 -31 -5 -35 -22 -31 -11 3 -20 9 -20 14 0 5 -3 8 -7 8 -24 -4 -53 2 -49
10 4 5 -3 7 -14 4 -15 -4 -20 0 -20 13 0 13 -3 15 -8 7 -8 -13 -29 -12 -51 1
-10 6 -12 5 -7 -2 4 -7 3 -12 -3 -12 -5 0 -13 -9 -16 -20 -4 -11 -10 -18 -14
-16 -4 3 -5 -9 -3 -26 3 -22 1 -29 -7 -24 -6 4 -8 12 -5 18 5 7 2 8 -5 4 -9
-6 -8 -13 5 -27 9 -10 13 -19 8 -19 -6 0 -9 -20 -8 -45 1 -25 -2 -42 -7 -39
-5 3 -8 0 -7 -7 2 -6 -3 -14 -9 -16 -7 -3 -13 2 -13 11 0 8 -4 18 -10 21 -7 4
-7 -2 -1 -18 6 -14 7 -28 3 -32 -4 -4 2 -3 14 3 19 10 21 8 21 -17 l0 -28 -21
21 c-12 12 -20 24 -19 29 2 4 0 7 -5 7 -4 0 -7 18 -7 40 -1 22 2 40 5 40 4 0
6 10 5 23 -1 12 3 28 9 36 9 12 8 13 -3 6 -11 -6 -13 -4 -7 11 8 19 13 49 15
92 l1 24 37 -23 c20 -13 33 -17 29 -11 -5 8 0 12 12 12 11 0 23 7 26 16 5 14
9 14 23 3 13 -11 15 -11 9 -1 -5 8 -1 21 10 33 18 20 44 26 44 10z m-22 -126
c17 -4 32 -12 32 -17 0 -5 5 -6 10 -3 6 3 10 2 10 -3 0 -6 9 -8 19 -5 13 3 21
-1 24 -14 6 -20 4 -53 -4 -68 -3 -6 -4 -31 -4 -57 1 -27 -2 -48 -7 -48 -5 0
-7 -4 -4 -9 3 -4 -15 -7 -39 -6 -30 2 -43 -1 -38 -8 3 -5 2 -7 -4 -4 -16 10
-95 18 -89 9 2 -4 -4 -8 -14 -8 -10 0 -16 4 -14 8 3 4 7 36 9 70 9 114 14 150
26 164 12 14 22 14 87 -1z m-168 -236 c0 -4 -7 -10 -16 -13 -8 -3 -13 -2 -9 3
3 5 -1 11 -7 14 -7 3 -3 4 10 4 12 -1 22 -4 22 -8z m240 -13 c0 -3 -4 -8 -10
-11 -5 -3 -10 -1 -10 4 0 6 5 11 10 11 6 0 10 -2 10 -4z m1016 -1453 c-3 -4
-6 0 -6 8 0 12 -2 11 -11 -1 -9 -12 -10 -12 -5 3 4 14 0 20 -15 24 -15 4 -17
8 -8 14 13 8 56 -37 45 -48z m15 34 c-10 -9 -11 -8 -5 6 3 10 9 15 12 12 3 -3
0 -11 -7 -18z m200 6 c13 -16 12 -17 -3 -4 -17 13 -22 21 -14 21 2 0 10 -8 17
-17z m-96 -14 c-4 -5 -12 -9 -18 -8 -9 0 -8 2 1 6 6 2 9 10 6 15 -4 7 -2 8 5
4 6 -4 9 -12 6 -17z m-64 -16 c-12 -20 -14 -14 -5 12 4 9 9 14 11 11 3 -2 0
-13 -6 -23z m148 -7 c-3 -3 -11 5 -18 17 -13 21 -12 21 5 5 10 -10 16 -20 13
-22z m-935 8 c3 -8 2 -12 -4 -9 -6 3 -10 10 -10 16 0 14 7 11 14 -7z m693 3
c0 -8 -6 -14 -13 -14 -7 0 -10 6 -7 14 7 17 20 17 20 0z m195 -9 c-7 -7 -12
-8 -12 -2 0 14 12 26 19 19 2 -3 -1 -11 -7 -17z m-122 2 c0 -5 -2 -10 -4 -10
-3 0 -8 5 -11 10 -3 6 -1 10 4 10 6 0 11 -4 11 -10z"/>
<path d="M496 1881 c-3 -4 6 -7 19 -7 14 0 22 2 19 5 -8 8 -34 10 -38 2z"/>
<path d="M270 1721 c0 -6 4 -13 10 -16 6 -3 7 1 4 9 -7 18 -14 21 -14 7z"/>
<path d="M275 1680 c-3 -5 -1 -10 4 -10 6 0 11 5 11 10 0 6 -2 10 -4 10 -3 0
-8 -4 -11 -10z"/>
<path d="M500 1762 c0 -5 7 -9 15 -9 8 0 15 4 15 9 0 4 -7 8 -15 8 -8 0 -15
-4 -15 -8z"/>
<path d="M430 1756 c0 -2 8 -10 18 -17 15 -13 16 -12 3 4 -13 16 -21 21 -21
13z"/>
<path d="M470 1741 c0 -5 7 -14 16 -22 14 -12 14 -14 -2 -26 -10 -7 -14 -13
-10 -13 4 0 0 -10 -8 -21 -8 -12 -12 -27 -10 -33 2 -6 -5 -12 -16 -13 -19 -2
-19 0 -4 23 9 13 12 24 8 24 -12 0 -31 -43 -26 -58 3 -10 7 -10 18 -1 11 9 14
8 14 -2 0 -11 2 -11 10 1 5 8 10 10 10 3 0 -12 17 -12 38 1 11 6 10 12 -5 29
-14 16 -15 19 -3 15 11 -4 16 0 16 13 0 17 -2 17 -23 -3 -29 -27 -30 -10 -2
21 19 20 20 24 5 40 -9 10 -13 21 -9 24 3 4 1 7 -5 7 -7 0 -12 -4 -12 -9z m28
-114 c7 -5 10 -12 7 -17 -7 -12 -32 -2 -39 15 -5 14 11 15 32 2z"/>
<path d="M456 1703 c-6 -14 -5 -15 5 -6 7 7 10 15 7 18 -3 3 -9 -2 -12 -12z"/>
<path d="M340 1706 c0 -2 7 -9 15 -16 9 -7 15 -8 15 -2 0 5 -7 12 -15 16 -8 3
-15 4 -15 2z"/>
<path d="M387 1701 c10 -11 9 -17 -4 -26 -13 -10 -13 -14 -3 -20 9 -5 11 -4 6
3 -7 12 5 16 32 13 6 -1 12 4 12 10 0 7 -3 9 -7 6 -3 -4 -16 1 -27 10 -12 10
-16 11 -9 4z"/>
<path d="M350 1664 c0 -6 5 -15 11 -21 8 -8 6 -15 -10 -25 -11 -7 -21 -17 -21
-22 0 -5 8 -2 19 8 16 15 19 15 31 1 16 -20 34 -19 26 1 -3 8 -1 25 5 37 10
21 10 21 -5 3 -9 -11 -16 -24 -16 -29 0 -4 -5 -5 -10 -2 -6 4 -8 9 -6 13 2 4
-2 16 -10 27 -8 10 -14 14 -14 9z"/>
<path d="M330 1640 c0 -5 5 -10 11 -10 5 0 7 5 4 10 -3 6 -8 10 -11 10 -2 0
-4 -4 -4 -10z"/>
<path d="M1374 212 c-4 -12 -10 -19 -15 -16 -5 3 -9 0 -9 -7 0 -7 -3 -9 -7 -6
-3 4 -13 1 -21 -6 -13 -10 -14 -8 -7 13 l8 25 -21 -25 c-17 -21 -22 -22 -36
-11 -9 8 -16 9 -16 3 0 -11 -38 -10 -61 2 -8 4 -5 0 5 -8 11 -9 17 -19 13 -23
-4 -3 -16 2 -27 12 -11 10 -20 15 -20 11 0 -4 -10 -2 -22 4 -22 10 -22 10 -4
-4 10 -8 19 -27 19 -41 0 -23 1 -24 12 -8 21 28 97 21 79 -8 -3 -5 0 -9 6 -9
7 0 10 6 7 14 -4 10 0 14 14 13 21 -1 25 -13 7 -20 -7 -2 -1 -4 15 -4 15 0 30
3 33 8 3 5 10 9 16 9 6 0 5 -7 -3 -17 -13 -16 -12 -17 4 -4 9 7 17 10 17 5 0
-4 5 -3 12 4 7 7 19 12 27 12 11 0 10 -4 -5 -16 -18 -14 -18 -15 4 -4 24 12
24 12 4 33 -18 21 -20 53 -2 42 13 -8 6 23 -8 37 -10 10 -14 8 -18 -10z m10
-27 c-10 -16 -12 -25 -4 -30 8 -5 8 -11 -1 -21 -10 -13 -14 -13 -28 1 -11 9
-30 13 -49 11 -18 -3 -32 0 -32 6 0 7 -4 7 -13 -1 -8 -6 -17 -8 -20 -4 -15 15
-5 20 39 18 25 -1 47 2 50 6 2 4 13 6 24 4 14 -3 22 3 26 21 3 13 10 21 15 18
5 -3 2 -16 -7 -29z m-209 -24 c3 -5 1 -12 -5 -16 -5 -3 -10 1 -10 9 0 18 6 21
15 7z m150 -31 c-3 -5 -11 -10 -16 -10 -6 0 -7 5 -4 10 3 6 11 10 16 10 6 0 7
-4 4 -10z"/>
<path d="M1345 149 c10 -10 22 -16 27 -13 12 8 -6 27 -28 30 -14 2 -14 0 1
-17z"/>
<path d="M1235 209 c-4 -6 -5 -12 -2 -15 2 -3 7 2 10 11 7 17 1 20 -8 4z"/>
<path d="M1147 199 c7 -7 15 -10 18 -7 3 3 -2 9 -12 12 -14 6 -15 5 -6 -5z"/>
<path d="M939 182 c9 -7 10 -12 2 -16 -6 -4 -8 -12 -5 -18 4 -7 2 -8 -5 -4 -6
4 -8 12 -5 18 5 8 -1 9 -17 5 -13 -4 -28 -7 -33 -7 -5 0 -3 -7 4 -15 7 -9 20
-13 30 -10 10 3 25 -3 35 -15 l19 -21 18 23 17 23 -4 -24 c-3 -18 -2 -22 7
-13 8 8 17 8 31 1 13 -8 17 -8 13 -1 -3 6 -2 13 4 17 5 3 10 -2 10 -12 0 -14
2 -15 9 -5 9 14 13 14 46 2 18 -7 21 -4 20 16 0 12 -6 29 -14 36 -10 10 -12
10 -7 1 4 -7 3 -13 -2 -13 -16 0 -22 13 -11 27 9 9 8 13 0 13 -6 0 -11 -6 -11
-12 0 -10 -2 -10 -9 0 -7 11 -10 10 -15 -3 -8 -22 2 -38 21 -31 9 4 13 1 10
-6 -2 -7 -11 -11 -18 -9 -8 2 -19 4 -26 5 -16 3 -30 16 -17 16 5 0 10 10 11
23 2 21 1 21 -12 -3 -10 -19 -11 -28 -2 -39 10 -11 9 -13 -3 -9 -8 3 -14 15
-13 27 2 11 -1 21 -5 22 -29 3 -50 7 -67 14 -14 5 -16 4 -6 -3z m39 -24 c9 -9
12 -9 12 1 0 7 4 10 9 6 6 -3 0 -16 -12 -28 -25 -26 -48 -18 -40 13 6 23 14
25 31 8z m107 2 c3 -5 1 -10 -4 -10 -6 0 -11 5 -11 10 0 6 2 10 4 10 3 0 8 -4
11 -10z m40 -29 c-3 -6 -11 -11 -17 -11 -6 0 -6 6 2 15 14 17 26 13 15 -4z"/>
<path d="M964 152 c3 -5 0 -13 -6 -15 -9 -4 -10 -6 -1 -6 17 -1 25 16 12 25
-7 4 -9 3 -5 -4z"/>
<path d="M2160 160 c-13 -8 -12 -10 3 -10 9 0 17 5 17 10 0 12 -1 12 -20 0z"/>
<path d="M435 150 c-3 -5 -1 -10 4 -10 6 0 11 5 11 10 0 6 -2 10 -4 10 -3 0
-8 -4 -11 -10z"/>
<path d="M2450 140 c0 -5 5 -10 11 -10 5 0 7 5 4 10 -3 6 -8 10 -11 10 -2 0
-4 -4 -4 -10z"/>
<path d="M392 125 c3 -3 16 -8 28 -10 12 -2 20 -1 16 2 -4 4 -16 8 -28 10 -12
2 -19 1 -16 -2z"/>
<path d="M1170 120 c0 -5 5 -10 10 -10 6 0 10 5 10 10 0 6 -4 10 -10 10 -5 0
-10 -4 -10 -10z"/>
<path d="M1210 121 c0 -6 4 -12 8 -15 5 -3 9 1 9 9 0 8 -4 15 -9 15 -4 0 -8
-4 -8 -9z"/>
</g>
</svg>
