<?xml version="1.0" standalone="no"?>
<!DOCTYPE svg PUBLIC "-//W3C//DTD SVG 20010904//EN"
 "http://www.w3.org/TR/2001/REC-SVG-20010904/DTD/svg10.dtd">
<svg version="1.0" xmlns="http://www.w3.org/2000/svg"
 width="700.000000pt" height="700.000000pt" viewBox="0 0 700.000000 700.000000"
 preserveAspectRatio="xMidYMid meet">
<metadata>
Created by potrace 1.14, written by Peter Selinger 2001-2017
</metadata>
<g transform="translate(0.000000,700.000000) scale(0.100000,-0.100000)"
fill="#000000" stroke="none">
<path d="M2210 6834 c-25 -7 -46 -13 -47 -14 -2 -2 -6 -3 -10 -4 -5 -1 -22 -6
-40 -10 -38 -9 -142 -80 -176 -122 -34 -40 -77 -122 -77 -145 0 -11 -4 -19 -8
-19 -5 0 -9 -6 -9 -12 0 -7 -4 -31 -7 -53 -11 -56 -17 -176 -15 -270 0 -44 1
-87 0 -95 0 -8 -1 -35 -1 -59 0 -25 -4 -47 -9 -51 -15 -9 -19 -225 -4 -239 15
-14 13 -217 -2 -214 -13 2 -9 -446 5 -461 14 -18 15 -103 1 -120 -16 -19 -18
-434 -2 -464 7 -13 11 -110 11 -264 -1 -134 0 -286 0 -338 1 -52 1 -102 1
-110 0 -8 0 -46 0 -85 1 -38 1 -77 0 -85 0 -8 0 -80 1 -160 0 -80 0 -154 -1
-165 -3 -27 -3 -225 0 -520 1 -66 1 -127 0 -135 0 -8 0 -44 0 -80 1 -36 1 -71
0 -77 0 -7 -1 -19 -2 -25 -1 -7 -1 -56 0 -108 0 -52 0 -102 0 -110 -1 -22 0
-478 1 -524 1 -22 3 -43 6 -48 3 -4 2 -8 -3 -8 -4 0 -7 -28 -5 -62 3 -75 4
-183 3 -283 -4 -198 4 -420 15 -454 6 -19 4 -22 -7 -16 -12 8 -12 6 0 -9 19
-23 51 -118 44 -130 -3 -5 -1 -6 4 -3 6 4 16 -6 22 -21 7 -15 30 -47 52 -70
26 -26 38 -46 33 -54 -6 -10 -3 -9 9 1 11 9 17 10 17 2 0 -6 7 -11 16 -11 10
0 14 -6 11 -14 -4 -10 0 -12 14 -9 11 3 19 0 19 -6 0 -7 5 -9 12 -5 8 5 9 2 4
-11 -5 -15 -4 -16 9 -5 12 10 18 10 30 0 8 -7 21 -10 29 -7 9 4 16 -3 20 -18
4 -16 13 -23 25 -22 11 0 17 5 15 9 -3 5 -9 6 -14 3 -4 -3 -11 2 -14 10 -4 13
-2 13 14 5 10 -5 30 -10 44 -10 24 0 31 -10 27 -34 -1 -4 1 -17 5 -28 6 -19 6
-19 21 1 8 12 19 19 24 16 5 -4 9 -1 9 5 0 7 -7 9 -16 6 -11 -4 -15 -2 -11 8
4 10 1 13 -9 9 -7 -3 -14 0 -14 5 0 6 15 10 34 9 30 -2 34 -5 31 -27 -2 -14
-4 -28 -4 -32 -1 -4 -9 -5 -18 -2 -15 5 -16 4 -3 -5 18 -13 42 12 33 35 -3 8
-1 14 5 14 20 0 20 -29 1 -54 -11 -14 -17 -26 -12 -26 5 0 17 13 26 30 12 20
23 27 35 24 14 -5 14 -4 2 4 -8 6 -18 8 -24 5 -5 -4 -7 1 -3 11 4 9 3 14 -2
11 -5 -3 -12 -1 -15 4 -3 5 14 9 39 8 44 -1 56 -12 35 -33 -6 -6 -6 -15 1 -24
8 -12 9 -12 7 4 -2 10 3 21 10 23 8 3 10 -2 6 -14 -5 -15 -4 -15 5 -3 9 13 11
13 11 0 0 -13 1 -13 10 0 5 8 7 23 4 33 -3 9 -1 17 4 17 17 0 20 -38 5 -59 -8
-12 -10 -21 -4 -21 6 0 11 5 11 12 0 6 3 8 6 5 4 -3 18 3 32 13 32 25 46 26
30 1 -7 -11 -16 -17 -20 -15 -4 3 -8 0 -8 -5 0 -18 19 -12 30 9 6 11 17 20 25
20 8 0 15 4 15 10 0 5 -7 6 -17 3 -12 -5 -14 -3 -8 7 5 9 4 11 -3 6 -7 -4 -12
-3 -12 2 0 15 50 11 51 -4 1 -8 2 -20 3 -26 1 -7 -5 -18 -14 -25 -18 -14 -2
-17 20 -3 8 5 11 12 8 16 -4 4 -3 16 3 27 8 14 8 18 0 13 -6 -4 -11 -3 -11 2
0 4 20 9 45 9 25 1 45 -3 45 -8 0 -4 -8 -6 -17 -2 -10 3 -15 3 -11 -2 4 -4 18
-8 30 -9 20 -1 23 -6 22 -42 0 -32 3 -41 14 -37 9 4 10 9 3 16 -17 17 -13 31
4 17 9 -8 15 -8 15 -2 0 6 -5 12 -10 14 -6 2 -12 13 -13 25 0 12 -4 20 -8 17
-4 -2 -10 -1 -13 4 -2 4 7 9 20 10 21 2 24 -2 19 -17 -3 -11 -1 -22 4 -26 6
-3 8 0 5 8 -3 10 2 14 18 13 18 -1 23 -7 23 -28 0 -15 6 -32 13 -37 9 -8 9 -8
2 1 -15 19 -12 32 5 18 9 -8 15 -8 15 -2 0 6 -5 12 -10 14 -6 2 -12 13 -13 25
0 12 -4 20 -8 17 -4 -2 -10 -1 -13 4 -2 4 7 9 20 10 20 1 24 -2 19 -17 -7 -24
20 -49 29 -25 3 9 2 22 -4 29 -8 9 6 12 63 11 63 -1 72 -3 69 -18 -2 -12 4
-18 18 -18 11 0 20 4 20 10 0 5 -6 7 -13 4 -8 -3 -14 1 -14 9 0 17 168 20 179
3 12 -17 10 -23 -7 -23 -9 0 -14 6 -11 14 3 8 1 11 -4 8 -14 -8 -13 -18 5 -41
15 -19 15 -19 9 1 -5 17 -2 16 15 -5 11 -14 21 -28 21 -31 0 -4 8 -10 17 -13
14 -6 14 -3 -3 16 -32 36 -35 45 -17 59 14 12 15 12 11 -1 -8 -23 10 -50 29
-43 12 5 14 3 8 -8 -8 -12 -6 -12 9 0 9 8 15 20 12 27 -3 7 3 18 11 26 14 11
16 11 10 -4 -3 -10 1 -26 11 -38 16 -19 19 -20 37 -5 19 15 19 15 -7 11 -17
-3 -28 0 -29 7 -1 7 -2 19 -3 27 0 8 -9 14 -18 12 -10 -2 -18 1 -18 5 0 15 42
13 57 -3 17 -16 29 -18 38 -4 3 5 0 7 -8 4 -8 -3 -18 -1 -21 4 -3 5 6 10 19
10 25 0 33 -16 15 -34 -6 -6 -6 -15 1 -24 8 -12 9 -12 7 4 -2 10 3 21 10 23 8
3 10 -2 6 -14 -5 -15 -4 -15 5 -3 9 13 11 13 11 0 0 -13 1 -13 10 0 5 8 7 23
4 33 -3 9 -1 17 4 17 17 0 20 -38 5 -59 -8 -12 -10 -21 -4 -21 6 0 11 3 11 8
0 4 12 12 26 19 22 10 24 9 20 -5 -3 -9 -1 -24 5 -32 8 -11 9 -9 3 10 -6 22
-5 23 10 11 20 -17 21 -5 1 15 -23 23 -18 40 5 19 11 -10 20 -14 20 -9 0 5 4
3 9 -4 4 -7 14 -14 22 -15 8 -2 20 -6 27 -11 7 -4 19 -3 27 4 18 15 16 57 -2
57 -9 0 -10 -4 -2 -14 13 -15 5 -43 -12 -43 -8 0 -9 4 0 13 11 14 5 27 -13 27
-6 0 -4 -5 4 -10 8 -5 12 -10 8 -11 -25 -5 -34 -4 -39 4 -5 7 -13 10 -49 16
-3 1 2 6 10 11 11 8 8 9 -12 6 -16 -3 -28 -1 -28 3 0 4 88 7 195 7 149 0 194
-3 191 -12 -3 -7 2 -18 10 -24 8 -7 14 -9 14 -6 0 4 10 -2 22 -13 11 -11 25
-18 30 -15 15 10 8 -9 -9 -23 -16 -13 -16 -13 5 -3 22 11 26 35 5 35 -5 0 -17
8 -27 18 -10 9 -21 15 -26 12 -5 -3 -11 -1 -15 5 -3 5 -1 10 5 10 6 0 8 5 5
10 -3 6 -1 10 4 10 6 0 11 -4 11 -9 0 -14 26 -20 41 -9 11 8 11 9 -3 4 -10 -3
-20 -2 -22 3 -3 4 8 7 24 7 16 0 27 -3 25 -7 -11 -16 30 -19 42 -3 7 10 16 14
20 10 5 -4 -3 -16 -15 -27 -19 -15 -28 -16 -44 -8 -15 8 -23 8 -32 -1 -8 -8
-7 -10 7 -5 10 4 17 2 17 -5 0 -6 4 -9 9 -6 5 3 12 -1 15 -10 3 -8 10 -13 15
-10 5 3 11 -1 15 -9 6 -17 26 -20 26 -4 0 5 -4 7 -10 4 -5 -3 -10 -3 -11 2 0
4 -2 16 -4 26 -2 12 1 17 10 13 9 -3 12 0 8 10 -9 23 6 16 37 -18 24 -26 31
-29 44 -18 9 7 16 9 16 4 0 -4 5 -3 12 4 9 9 14 7 24 -6 11 -14 15 -15 26 -3
11 12 10 13 -5 7 -13 -4 -17 -2 -14 6 5 16 39 18 50 3 4 -7 10 -7 15 0 14 19
40 16 47 -5 6 -20 7 -20 27 2 18 21 19 21 14 3 -6 -20 -6 -20 9 -1 18 23 19
33 5 41 -6 4 -7 -1 -3 -12 6 -16 5 -17 -11 -3 -23 18 -46 22 -40 6 3 -8 -14
-11 -56 -11 -40 0 -59 4 -56 11 2 6 -2 11 -9 11 -7 0 -11 -6 -8 -13 4 -12 -12
-27 -35 -30 -7 -2 -11 3 -9 9 3 7 10 11 16 10 6 -2 11 2 11 7 0 6 -4 10 -10
10 -5 0 -10 4 -10 8 0 4 16 8 35 9 19 0 35 -3 35 -8 0 -5 5 -9 11 -9 5 0 7 4
4 10 -3 5 -1 10 4 10 6 0 11 -4 11 -10 0 -5 5 -10 11 -10 5 0 8 4 5 8 -2 4 36
8 85 8 49 0 89 -3 89 -8 0 -5 -4 -6 -10 -3 -5 3 -7 0 -4 -8 3 -8 -3 -20 -12
-28 -15 -12 -16 -12 -10 8 4 13 2 24 -5 29 -8 5 -10 2 -6 -8 3 -9 -1 -25 -9
-37 -9 -12 -11 -21 -5 -21 6 0 11 5 11 11 0 5 4 8 9 4 5 -3 13 0 16 5 5 7 12
5 20 -7 12 -15 16 -16 27 -4 11 12 10 13 -5 7 -13 -4 -17 -2 -14 6 2 7 11 13
20 13 23 0 31 13 19 28 -9 11 -6 14 16 14 48 2 100 10 113 18 8 5 10 4 5 -3
-11 -18 3 -14 26 8 12 10 25 17 29 14 4 -2 27 6 51 20 24 13 46 24 51 25 4 1
7 4 6 8 -1 3 16 16 36 28 20 13 36 27 35 31 0 5 6 11 16 12 10 3 14 0 9 -7 -3
-6 -11 -8 -17 -5 -6 4 -8 2 -5 -4 4 -5 4 -18 1 -27 -6 -13 -9 -14 -16 -3 -6 9
-7 6 -3 -10 4 -12 3 -22 -2 -21 -4 1 -17 1 -28 0 -15 -1 -16 -4 -7 -10 10 -6
9 -11 -4 -22 -16 -12 -17 -12 -11 5 6 15 5 17 -6 8 -8 -7 -18 -8 -22 -4 -5 4
-5 2 -2 -5 4 -6 2 -13 -5 -15 -6 -2 -8 -10 -4 -17 5 -7 15 -10 23 -7 9 4 13 1
10 -6 -2 -7 -10 -12 -16 -10 -32 7 -36 6 -34 -5 2 -7 -2 -13 -7 -13 -14 0 -13
23 2 38 6 6 9 15 5 18 -9 10 -39 -17 -34 -31 3 -6 -4 -12 -15 -12 -15 -2 -17
1 -8 12 8 10 8 15 -1 21 -8 5 -9 3 -4 -6 6 -9 4 -11 -5 -5 -9 6 -11 4 -5 -5 6
-9 4 -11 -5 -5 -9 6 -11 4 -5 -5 5 -9 4 -11 -3 -6 -7 4 -12 3 -12 -1 0 -12 43
-38 59 -34 7 1 10 -2 6 -8 -3 -6 -1 -11 5 -11 7 0 10 6 7 13 -2 6 -11 12 -20
12 -22 0 -31 11 -13 18 8 3 22 0 32 -8 16 -11 20 -10 30 4 7 9 15 13 18 10 3
-3 -9 -23 -27 -44 -17 -22 -25 -35 -17 -30 8 5 17 10 20 10 10 0 63 45 53 45
-5 0 -14 -5 -21 -12 -9 -9 -12 -9 -12 -1 0 14 19 27 40 28 8 0 15 7 15 15 1
20 14 40 27 40 7 0 7 -5 -1 -14 -13 -15 -5 -46 12 -46 7 0 7 4 -1 12 -17 17
-15 33 3 18 12 -10 16 -9 21 4 3 9 9 14 13 11 4 -2 8 1 8 8 0 7 4 20 8 30 5
11 3 17 -6 17 -7 0 -9 -3 -6 -6 3 -4 2 -15 -4 -25 -8 -15 -14 -17 -29 -9 -11
6 -17 16 -14 25 4 8 10 12 15 9 5 -3 7 -10 4 -15 -4 -5 -1 -9 5 -9 7 0 10 7 6
15 -3 8 2 19 12 24 9 6 12 11 6 11 -5 0 -16 -6 -23 -13 -11 -10 -13 -9 -7 6 3
10 6 20 6 23 0 2 7 1 15 -2 8 -4 15 -1 15 6 0 6 -4 8 -10 5 -5 -3 -10 -2 -10
4 0 5 6 11 13 14 9 3 8 8 -3 22 -12 15 -12 17 -1 10 11 -6 13 -4 8 9 -5 12 -3
16 5 13 9 -2 13 -22 12 -56 -1 -31 2 -47 7 -40 4 7 5 17 3 21 -3 4 4 18 15 30
12 12 18 24 15 27 -3 3 -9 -1 -14 -9 -5 -8 -12 -11 -16 -7 -4 3 -1 14 7 24 8
9 9 14 3 10 -16 -10 -27 24 -13 37 9 8 11 7 7 -4 -4 -11 1 -16 15 -18 15 -1
18 1 9 7 -21 13 -18 45 11 126 11 30 19 39 33 37 14 -2 13 1 -6 12 l-25 15 32
-1 c19 -1 30 -5 26 -11 -3 -6 -1 -7 6 -3 13 9 5 27 -12 25 -28 -3 -34 3 -33
35 0 19 4 32 9 29 4 -2 7 0 7 6 0 5 6 11 13 14 6 2 4 3 -5 2 -10 -2 -18 3 -18
12 0 8 5 11 13 7 9 -6 9 -4 0 7 -15 15 -18 73 -3 64 5 -3 7 -13 4 -23 -5 -14
-4 -15 5 -2 7 10 6 19 -4 30 -16 18 -16 121 0 132 6 5 5 8 -2 8 -7 0 -12 11
-11 25 2 19 7 24 19 20 10 -3 20 -1 24 5 4 6 1 11 -6 9 -31 -4 -40 2 -37 24 2
14 9 21 20 19 20 -3 33 14 17 24 -7 4 -9 3 -5 -4 4 -7 -1 -10 -14 -9 -11 1
-20 7 -20 15 0 8 5 10 13 6 9 -6 9 -4 -1 8 -15 19 -13 88 3 88 6 0 6 3 -1 8
-6 4 -11 23 -12 42 -1 31 1 33 12 18 7 -10 17 -18 21 -18 5 0 -1 10 -13 23
-17 18 -19 26 -10 35 18 18 27 15 21 -7 -3 -10 -1 -21 4 -24 10 -6 10 39 0 49
-4 4 -13 2 -21 -5 -11 -10 -13 -2 -13 51 1 35 6 66 12 70 6 5 6 8 -2 8 -7 0
-12 11 -11 25 2 17 7 24 16 20 8 -3 18 -3 23 1 11 7 -7 44 -22 44 -6 0 -3 -7
6 -16 19 -19 15 -27 -9 -18 -23 9 -17 50 6 46 20 -3 33 14 17 24 -7 4 -9 3 -5
-4 4 -7 -1 -10 -14 -9 -11 1 -20 7 -20 15 0 8 5 10 13 6 8 -6 8 -3 -1 9 -8 9
-12 31 -11 49 2 18 0 38 -4 45 -4 6 0 16 8 23 13 11 14 8 11 -19 -2 -17 0 -28
4 -26 15 9 7 56 -11 65 -13 8 -16 16 -11 33 4 12 7 43 7 70 -1 45 8 61 18 35
4 -10 6 -10 6 0 1 7 -6 15 -14 18 -8 4 -12 10 -9 15 3 5 1 9 -5 9 -6 0 -8 7
-4 16 3 9 6 41 7 71 1 46 4 57 19 59 11 1 22 5 25 9 4 3 -5 4 -20 1 -26 -4
-26 -4 -26 57 0 68 6 86 19 66 7 -11 9 -11 9 -1 0 7 -7 15 -15 18 -8 4 -12 10
-9 15 3 5 1 9 -5 9 -6 0 -8 7 -4 16 3 9 6 41 7 71 1 46 4 57 19 59 11 1 22 5
25 9 4 3 -5 4 -20 1 l-26 -4 1 69 c1 64 9 86 20 57 4 -10 6 -10 6 0 1 7 -6 15
-14 18 -8 4 -12 10 -9 15 3 5 1 9 -5 9 -6 0 -7 8 -4 17 9 22 8 66 0 80 -4 6 0
16 8 23 12 10 14 5 10 -35 -2 -26 -1 -44 2 -41 3 3 7 24 9 46 2 31 -1 42 -16
50 -14 8 -18 16 -12 33 4 12 7 43 7 70 -1 45 8 61 18 35 4 -10 6 -10 6 0 1 7
-6 15 -14 18 -8 4 -12 10 -9 15 3 5 1 9 -5 9 -6 0 -8 7 -4 17 3 9 6 38 7 65 0
46 9 62 19 36 4 -10 6 -10 6 0 1 7 -6 15 -14 18 -8 4 -12 10 -9 15 3 5 1 9 -5
9 -6 0 -8 7 -4 17 3 9 6 38 7 65 0 32 4 48 12 48 7 0 15 4 18 9 4 5 -4 7 -16
3 -14 -3 -19 -2 -14 6 4 7 2 12 -4 12 -6 0 -8 5 -4 11 4 8 9 8 17 0 6 -6 15
-11 19 -11 4 0 -1 9 -12 20 -15 15 -20 31 -18 65 3 44 11 57 21 33 4 -10 6
-10 6 -1 1 7 -8 17 -19 23 -14 8 -18 16 -12 33 4 12 7 43 7 70 -1 45 8 61 18
35 4 -10 6 -10 6 0 1 7 -6 15 -14 18 -8 4 -12 10 -9 15 3 5 0 9 -6 9 -6 0 -8
5 -4 11 4 8 9 8 17 0 6 -6 15 -11 19 -11 4 0 -1 9 -12 20 -18 18 -20 30 -16
80 2 35 0 60 -6 60 -5 0 -6 5 -3 10 10 16 13 150 4 150 -5 0 -6 7 -2 17 3 9 6
38 7 65 0 40 3 48 18 48 10 0 17 -5 15 -11 -1 -6 5 -14 13 -16 12 -4 12 -3 2
5 -8 5 -12 13 -10 18 1 5 -7 10 -20 12 -12 2 -20 8 -17 13 4 5 1 9 -5 9 -6 0
-8 5 -4 11 3 6 6 73 7 149 0 96 4 137 11 134 15 -5 42 13 33 23 -5 4 -12 1
-16 -6 -16 -26 -29 -1 -27 53 2 53 10 76 22 63 3 -3 2 -12 -2 -19 -10 -15 -15
-42 -7 -34 4 3 12 1 20 -5 8 -7 13 -8 13 -1 0 5 -7 13 -15 16 -14 5 -14 9 2
33 10 15 12 24 6 20 -7 -5 -14 -3 -14 2 -1 6 -2 17 -3 24 -1 6 10 20 23 29 24
16 24 17 4 15 -12 0 -19 -5 -17 -9 3 -4 1 -8 -4 -8 -5 0 -9 34 -9 75 0 54 4
76 14 79 8 3 11 11 7 18 -5 8 -2 9 10 5 9 -4 15 -3 11 2 -3 5 0 11 7 13 7 3 5
7 -6 11 -9 4 -15 3 -12 -2 3 -5 -1 -12 -10 -15 -8 -3 -12 -10 -9 -16 3 -5 2
-10 -3 -10 -5 0 -9 33 -9 74 0 68 2 74 26 89 24 15 25 16 4 14 -12 0 -19 -5
-17 -9 3 -4 1 -8 -4 -8 -5 0 -9 27 -9 59 0 50 2 58 16 54 11 -3 10 0 -4 12
-19 15 -19 17 -2 26 9 6 14 15 11 21 -5 7 -1 9 9 5 10 -3 17 -2 17 4 0 6 -8 9
-17 7 -10 -2 -17 -10 -15 -16 1 -7 -2 -12 -6 -12 -15 0 -11 148 4 154 7 3 10
14 7 25 -4 16 -1 19 16 16 18 -3 20 -1 11 16 -6 10 -16 19 -23 18 -9 0 -9 -2
1 -6 23 -9 12 -22 -15 -17 -16 2 -23 1 -17 -3 14 -11 26 -43 15 -43 -12 0 -24
39 -26 83 -1 36 8 49 18 25 4 -10 6 -10 6 -1 1 7 -8 17 -19 23 -14 8 -18 16
-12 33 4 12 7 43 7 70 -1 45 8 61 18 35 4 -10 6 -10 6 0 1 7 -6 15 -14 18 -8
4 -12 10 -9 15 3 5 1 9 -5 9 -6 0 -8 7 -4 17 3 9 6 38 7 65 0 46 9 62 19 36 4
-10 6 -10 6 0 1 7 -6 15 -14 18 -8 4 -12 10 -9 15 3 5 1 9 -5 9 -6 0 -8 7 -4
17 3 9 6 38 7 65 0 32 4 48 12 48 7 0 15 4 18 9 4 5 -4 7 -16 3 -14 -3 -19 -2
-14 6 4 7 2 12 -4 12 -6 0 -8 5 -4 11 4 8 9 8 17 0 6 -6 15 -11 19 -11 4 0 -1
9 -12 20 -27 27 -25 110 3 110 9 0 16 -5 15 -11 -2 -6 4 -14 12 -16 12 -4 12
-3 2 5 -8 5 -13 13 -12 18 1 5 -9 12 -22 15 -13 3 -21 12 -19 20 8 33 1 276
-10 319 -2 8 2 14 9 12 8 -1 11 2 7 8 -3 6 -11 8 -16 5 -5 -4 -9 -3 -10 2 0 4
-3 17 -5 28 -3 11 -6 27 -8 35 -1 8 -8 25 -15 38 -6 12 -9 28 -5 34 4 6 3 8
-4 4 -6 -3 -13 3 -17 14 -3 11 -11 20 -17 20 -6 0 -9 3 -5 6 3 4 -11 23 -32
43 -54 51 -72 65 -108 80 -18 7 -33 17 -33 22 0 5 -3 8 -7 7 -11 -3 -104 21
-125 33 -10 5 -504 8 -1170 7 -902 -1 -1163 -4 -1198 -14z m2607 -6337 c-15
-23 -75 -37 -61 -15 3 5 12 7 20 4 7 -3 22 5 31 18 23 31 31 24 10 -7z m43
-27 c0 -5 -2 -10 -4 -10 -3 0 -8 5 -11 10 -3 6 -1 10 4 10 6 0 11 -4 11 -10z
m-60 -20 c0 -5 -5 -10 -11 -10 -5 0 -7 5 -4 10 3 6 8 10 11 10 2 0 4 -4 4 -10z
m-2316 -16 c9 -24 7 -28 -9 -14 -17 14 -20 30 -6 30 5 0 12 -7 15 -16z m60 -1
c4 -9 1 -23 -7 -30 -12 -12 -14 -9 -14 17 0 33 11 40 21 13z m26 1 c0 -8 -4
-12 -10 -9 -5 3 -10 10 -10 16 0 5 5 9 10 9 6 0 10 -7 10 -16z m700 3 c0 -8 4
-7 10 3 5 8 10 11 11 5 8 -59 7 -61 -12 -61 -10 0 -20 5 -20 11 -1 5 -2 17 -3
25 0 8 -9 14 -18 12 -10 -2 -18 1 -18 5 0 5 11 10 25 11 14 1 25 -4 25 -11z
m174 -3 c9 -24 7 -28 -9 -14 -17 14 -20 30 -6 30 5 0 12 -7 15 -16z m60 0 c6
-16 0 -34 -12 -34 -4 0 -8 11 -8 25 -2 28 11 34 20 9z m526 6 c0 -5 -4 -10
-10 -10 -5 0 -10 5 -10 10 0 6 5 10 10 10 6 0 10 -4 10 -10z m60 -2 c0 -9 3
-10 8 -2 9 15 40 14 46 -1 4 -11 -19 -13 -66 -6 -12 2 -10 21 2 21 6 0 10 -6
10 -12z m390 -23 c0 -3 -5 -3 -10 0 -6 4 -18 1 -26 -6 -13 -11 -14 -9 -3 14
10 22 14 24 25 12 8 -7 14 -16 14 -20z m-1590 5 c0 -5 -4 -10 -10 -10 -5 0
-10 5 -10 10 0 6 5 10 10 10 6 0 10 -4 10 -10z m1449 -16 c-15 -18 -22 -13
-13 10 3 9 10 13 16 10 5 -3 4 -12 -3 -20z m-2044 7 c3 -5 1 -12 -5 -16 -5 -3
-10 1 -10 9 0 18 6 21 15 7z m1838 -12 c3 -13 1 -19 -6 -16 -15 5 -22 37 -9
37 5 0 12 -9 15 -21z m-93 -3 c0 -3 -4 -8 -10 -11 -5 -3 -10 -1 -10 4 0 6 5
11 10 11 6 0 10 -2 10 -4z"/>
<path d="M3270 409 c0 -5 5 -7 10 -4 6 3 10 8 10 11 0 2 -4 4 -10 4 -5 0 -10
-5 -10 -11z"/>
<path d="M5016 6502 c-3 -4 4 -9 15 -9 23 -2 25 3 4 10 -8 4 -16 3 -19 -1z"/>
<path d="M5010 6371 c0 -7 -5 -9 -12 -5 -7 5 -8 3 -3 -5 5 -9 10 -10 18 -2 6
6 8 14 4 18 -4 3 -7 1 -7 -6z"/>
<path d="M5075 6340 c-3 -5 -1 -10 4 -10 6 0 11 5 11 10 0 6 -2 10 -4 10 -3 0
-8 -4 -11 -10z"/>
<path d="M5017 6329 c7 -7 15 -10 18 -7 3 3 -2 9 -12 12 -14 6 -15 5 -6 -5z"/>
<path d="M4991 6314 c0 -11 3 -14 6 -6 3 7 2 16 -1 19 -3 4 -6 -2 -5 -13z"/>
<path d="M5016 6299 c4 -8 30 -6 38 2 3 3 -5 5 -19 5 -13 0 -22 -3 -19 -7z"/>
<path d="M5024 6265 c-18 -15 -18 -15 0 -8 15 5 17 3 11 -8 -5 -8 -4 -11 0 -6
8 7 17 37 11 37 -1 0 -11 -7 -22 -15z"/>
<path d="M5066 6261 c-3 -4 4 -7 14 -6 27 2 33 10 10 12 -11 1 -22 -2 -24 -6z"/>
<path d="M4990 6251 c0 -6 4 -13 10 -16 6 -3 7 1 4 9 -7 18 -14 21 -14 7z"/>
<path d="M5017 6223 c-10 -10 -8 -41 2 -48 5 -3 13 0 17 6 5 8 3 9 -6 4 -10
-6 -12 -1 -8 19 6 28 5 30 -5 19z"/>
<path d="M5090 6219 c0 -5 5 -7 10 -4 6 3 10 8 10 11 0 2 -4 4 -10 4 -5 0 -10
-5 -10 -11z"/>
<path d="M4993 6164 c0 -17 2 -22 7 -13 5 6 6 18 3 26 -8 19 -10 16 -10 -13z"/>
<path d="M5090 6179 c0 -5 5 -7 10 -4 6 3 10 8 10 11 0 2 -4 4 -10 4 -5 0 -10
-5 -10 -11z"/>
<path d="M5015 6150 c-3 -6 1 -13 9 -16 9 -3 14 -10 11 -14 -3 -4 3 -14 13
-21 14 -11 15 -11 5 1 -8 9 -9 19 -3 31 8 14 6 16 -12 11 -14 -3 -19 -1 -14 6
4 7 5 12 2 12 -3 0 -8 -5 -11 -10z"/>
<path d="M4999 6063 c0 -5 -3 -19 -5 -32 -2 -14 -2 -22 1 -19 8 8 17 58 10 58
-3 0 -5 -3 -6 -7z"/>
<path d="M5090 6060 c0 -5 5 -10 11 -10 5 0 7 5 4 10 -3 6 -8 10 -11 10 -2 0
-4 -4 -4 -10z"/>
<path d="M5032 6051 c-11 -7 -11 -9 0 -14 9 -3 15 1 15 9 0 8 -1 14 -1 14 -1
0 -7 -4 -14 -9z"/>
<path d="M5069 6023 c-13 -16 -12 -17 4 -4 9 7 17 15 17 17 0 8 -8 3 -21 -13z"/>
<path d="M5016 6023 c-10 -10 -7 -33 4 -33 5 0 7 7 4 15 -5 11 -2 13 10 9 9
-3 16 -4 16 -1 0 8 -28 16 -34 10z"/>
<path d="M5015 5931 c-6 -11 13 -26 22 -17 4 3 1 6 -6 6 -7 0 -9 5 -6 10 3 6
4 10 1 10 -3 0 -7 -4 -11 -9z"/>
<path d="M4999 5903 c0 -5 -3 -19 -5 -32 -2 -14 -2 -22 1 -19 8 8 17 58 10 58
-3 0 -5 -3 -6 -7z"/>
<path d="M5032 5891 c-11 -7 -11 -9 0 -14 9 -3 15 1 15 9 0 8 -1 14 -1 14 -1
0 -7 -4 -14 -9z"/>
<path d="M5069 5863 c-13 -16 -12 -17 4 -4 9 7 17 15 17 17 0 8 -8 3 -21 -13z"/>
<path d="M5018 5862 c0 -4 -2 -11 -3 -17 -2 -5 -3 -14 -4 -20 -1 -5 -6 -3 -11
5 -6 9 -10 10 -10 3 0 -18 21 -27 30 -13 5 7 6 19 3 27 -4 9 0 11 11 7 9 -3
16 -4 16 -1 0 8 -30 17 -32 9z"/>
<path d="M4999 5743 c0 -5 -3 -19 -5 -32 -2 -14 -2 -22 1 -19 8 8 17 58 10 58
-3 0 -5 -3 -6 -7z"/>
<path d="M5020 5726 c0 -2 7 -7 16 -10 8 -3 12 -2 9 4 -6 10 -25 14 -25 6z"/>
<path d="M5069 5703 c-13 -16 -12 -17 4 -4 16 13 21 21 13 21 -2 0 -10 -8 -17
-17z"/>
<path d="M5018 5702 c0 -4 -2 -11 -3 -17 -2 -5 -3 -14 -4 -20 -1 -5 -6 -3 -11
5 -6 9 -10 10 -10 3 0 -18 21 -27 30 -13 5 7 6 19 3 27 -4 9 0 11 11 7 9 -3
16 -4 16 -1 0 8 -30 17 -32 9z"/>
<path d="M5070 5631 c0 -6 4 -13 10 -16 6 -3 7 1 4 9 -7 18 -14 21 -14 7z"/>
<path d="M5038 5613 c7 -3 16 -2 19 1 4 3 -2 6 -13 5 -11 0 -14 -3 -6 -6z"/>
<path d="M4999 5583 c0 -5 -3 -19 -5 -32 -2 -14 -2 -22 1 -19 8 8 17 58 10 58
-3 0 -5 -3 -6 -7z"/>
<path d="M5069 5543 c-13 -16 -12 -17 4 -4 9 7 17 15 17 17 0 8 -8 3 -21 -13z"/>
<path d="M5016 5541 c-9 -14 1 -45 15 -49 8 -2 10 0 4 5 -17 14 -18 43 0 37 8
-3 15 -4 15 -1 0 9 -29 16 -34 8z"/>
<path d="M5106 5522 c-3 -5 1 -9 9 -9 8 0 12 4 9 9 -3 4 -7 8 -9 8 -2 0 -6 -4
-9 -8z"/>
<path d="M5007 5479 c7 -7 15 -10 18 -7 3 3 -2 9 -12 12 -14 6 -15 5 -6 -5z"/>
<path d="M5069 5463 c-13 -16 -12 -17 4 -4 9 7 17 15 17 17 0 8 -8 3 -21 -13z"/>
<path d="M4996 5413 c-6 -14 -5 -15 5 -6 7 7 10 15 7 18 -3 3 -9 -2 -12 -12z"/>
<path d="M5017 5303 c-6 -14 -2 -38 7 -40 5 -1 13 -7 18 -15 8 -10 9 -10 5 2
-2 8 -10 14 -16 12 -14 -3 -11 30 4 40 6 5 6 8 -2 8 -6 0 -14 -3 -16 -7z"/>
<path d="M5046 5279 c4 -8 30 -6 38 2 3 3 -5 5 -19 5 -13 0 -22 -3 -19 -7z"/>
<path d="M5113 5245 c0 -8 4 -12 9 -9 5 3 6 10 3 15 -9 13 -12 11 -12 -6z"/>
<path d="M5075 5231 c-3 -5 -2 -12 3 -15 5 -3 9 1 9 9 0 17 -3 19 -12 6z"/>
<path d="M5136 5218 c3 -5 10 -6 15 -3 13 9 11 12 -6 12 -8 0 -12 -4 -9 -9z"/>
<path d="M5054 5178 c-4 -7 -4 -10 1 -6 4 4 15 2 24 -5 14 -11 14 -10 2 6 -16
20 -18 21 -27 5z"/>
<path d="M5030 5160 c0 -5 5 -10 11 -10 5 0 7 5 4 10 -3 6 -8 10 -11 10 -2 0
-4 -4 -4 -10z"/>
<path d="M5070 5125 c0 -7 30 -13 34 -7 3 4 -4 9 -15 9 -10 1 -19 0 -19 -2z"/>
<path d="M5028 5113 c7 -3 16 -2 19 1 4 3 -2 6 -13 5 -11 0 -14 -3 -6 -6z"/>
<path d="M5014 5071 c1 -8 12 -16 26 -18 18 -2 21 -1 10 6 -8 5 -17 8 -21 5
-4 -2 -9 1 -12 8 -3 9 -4 8 -3 -1z"/>
<path d="M5050 5078 c0 -4 4 -8 9 -8 6 0 12 4 15 8 3 5 -1 9 -9 9 -8 0 -15 -4
-15 -9z"/>
<path d="M5070 5057 c0 -2 6 -10 14 -16 11 -9 16 -9 22 1 4 7 4 10 -1 6 -4 -4
-14 -3 -22 3 -7 6 -13 9 -13 6z"/>
<path d="M5055 5020 c-3 -6 1 -7 9 -4 18 7 21 14 7 14 -6 0 -13 -4 -16 -10z"/>
<path d="M5060 5000 c-9 -6 -10 -10 -3 -10 6 0 15 5 18 10 8 12 4 12 -15 0z"/>
<path d="M5024 4986 c11 -9 24 -16 30 -16 12 0 7 5 -24 19 -24 11 -24 11 -6
-3z"/>
<path d="M5135 4980 c3 -5 8 -10 11 -10 2 0 4 5 4 10 0 6 -5 10 -11 10 -5 0
-7 -4 -4 -10z"/>
<path d="M5015 4959 c-4 -6 -5 -12 -2 -15 2 -3 7 2 10 11 7 17 1 20 -8 4z"/>
<path d="M5064 4958 c-4 -7 -2 -8 5 -4 6 4 18 3 25 -3 9 -8 13 -7 13 2 0 16
-34 20 -43 5z"/>
<path d="M5077 4929 c7 -7 15 -10 18 -7 3 3 -2 9 -12 12 -14 6 -15 5 -6 -5z"/>
<path d="M5015 4919 c-11 -16 -1 -19 13 -3 7 8 8 14 3 14 -5 0 -13 -5 -16 -11z"/>
<path d="M5135 4900 c3 -5 8 -10 11 -10 2 0 4 5 4 10 0 6 -5 10 -11 10 -5 0
-7 -4 -4 -10z"/>
<path d="M5070 4897 c0 -2 6 -10 14 -16 11 -9 16 -9 22 1 4 7 4 10 -1 6 -4 -4
-14 -3 -22 3 -7 6 -13 9 -13 6z"/>
<path d="M5055 4859 c-6 -8 -4 -10 5 -4 10 6 12 4 6 -11 -6 -15 -5 -17 5 -6 9
9 10 15 2 23 -8 8 -13 7 -18 -2z"/>
<path d="M5020 4839 c-13 -9 -12 -10 3 -5 21 7 22 -2 1 -26 -14 -14 -14 -20
-4 -33 13 -15 35 -11 24 6 -3 5 -10 7 -15 4 -14 -9 -11 11 4 24 8 6 17 7 22 3
4 -4 2 3 -4 16 -14 26 -12 25 -31 11z"/>
<path d="M5068 4808 c-10 -10 -14 -18 -9 -18 10 0 36 29 30 34 -2 1 -12 -6
-21 -16z"/>
<path d="M5010 4751 c0 -5 5 -13 10 -16 6 -3 10 -2 10 4 0 5 -4 13 -10 16 -5
3 -10 2 -10 -4z"/>
<path d="M5064 4718 c-4 -7 -2 -8 5 -4 6 4 18 3 25 -3 9 -8 13 -7 13 2 0 16
-34 20 -43 5z"/>
<path d="M5077 4689 c7 -7 15 -10 18 -7 3 3 -2 9 -12 12 -14 6 -15 5 -6 -5z"/>
<path d="M5034 4682 c3 -5 0 -13 -6 -15 -8 -3 -6 -6 5 -6 19 -1 23 14 5 25 -6
4 -8 3 -4 -4z"/>
<path d="M5076 4655 c-3 -9 -10 -14 -15 -11 -5 3 -15 -2 -22 -12 -12 -15 -12
-16 2 -5 9 7 18 11 21 8 3 -3 11 1 18 10 7 9 11 18 8 21 -3 3 -8 -2 -12 -11z"/>
<path d="M5020 4606 c0 -2 7 -7 16 -10 8 -3 12 -2 9 4 -6 10 -25 14 -25 6z"/>
<path d="M5070 4576 c0 -3 9 -10 20 -16 11 -6 20 -8 20 -6 0 3 -9 10 -20 16
-11 6 -20 8 -20 6z"/>
<path d="M5003 4563 c4 -3 1 -13 -6 -22 -11 -14 -10 -14 5 -2 16 12 16 31 1
31 -4 0 -3 -3 0 -7z"/>
<path d="M5030 4550 c0 -6 7 -10 15 -10 8 0 15 2 15 4 0 2 -7 6 -15 10 -8 3
-15 1 -15 -4z"/>
<path d="M5075 4511 c-3 -5 -2 -12 3 -15 5 -3 9 1 9 9 0 17 -3 19 -12 6z"/>
<path d="M5030 4490 c0 -5 5 -10 11 -10 5 0 7 5 4 10 -3 6 -8 10 -11 10 -2 0
-4 -4 -4 -10z"/>
<path d="M5000 4475 c-7 -9 -11 -17 -9 -20 3 -2 10 5 17 15 14 24 10 26 -8 5z"/>
<path d="M5014 4458 c-7 -11 5 -28 19 -27 9 0 9 2 0 6 -7 2 -13 9 -13 14 0 6
4 8 9 4 5 -3 12 -2 15 3 3 5 -2 9 -10 9 -8 0 -17 -4 -20 -9z"/>
<path d="M4995 4420 c3 -5 8 -10 11 -10 2 0 4 5 4 10 0 6 -5 10 -11 10 -5 0
-7 -4 -4 -10z"/>
<path d="M5015 4400 c-3 -5 -3 -10 2 -11 4 0 -1 -5 -12 -10 -19 -8 -19 -9 -1
-6 11 1 18 6 17 11 -2 5 3 13 11 17 9 6 9 9 1 9 -6 0 -15 -4 -18 -10z"/>
<path d="M5050 4400 c0 -5 5 -10 10 -10 6 0 10 5 10 10 0 6 -4 10 -10 10 -5 0
-10 -4 -10 -10z"/>
<path d="M5033 4355 c0 -8 6 -16 14 -19 11 -4 11 -1 3 14 -13 24 -17 25 -17 5z"/>
<path d="M5008 4345 c5 -11 7 -25 5 -32 -6 -16 9 -22 32 -12 18 8 18 9 -3 5
-17 -3 -22 -1 -18 9 2 7 -2 21 -10 32 -14 17 -15 17 -6 -2z"/>
<path d="M5156 4322 c-3 -5 1 -9 9 -9 8 0 12 4 9 9 -3 4 -7 8 -9 8 -2 0 -6 -4
-9 -8z"/>
<path d="M4993 4280 c0 -23 3 -28 9 -16 5 9 5 23 0 32 -6 12 -9 7 -9 -16z"/>
<path d="M5070 4276 c0 -8 4 -17 9 -20 5 -4 7 3 4 14 -6 23 -13 26 -13 6z"/>
<path d="M5016 4262 c-10 -9 -7 -32 4 -32 5 0 7 6 4 14 -4 11 0 13 15 9 12 -3
21 -3 21 0 0 7 -38 16 -44 9z"/>
<path d="M4990 4231 c0 -10 19 -25 25 -20 1 2 -3 10 -11 17 -8 7 -14 8 -14 3z"/>
<path d="M4999 4143 c0 -5 -3 -19 -5 -32 -2 -14 -2 -22 1 -19 8 8 17 58 10 58
-3 0 -5 -3 -6 -7z"/>
<path d="M5032 4131 c-11 -7 -11 -9 0 -14 9 -3 15 1 15 9 0 8 -1 14 -1 14 -1
0 -7 -4 -14 -9z"/>
<path d="M5070 4110 c6 -11 13 -20 16 -20 2 0 0 9 -6 20 -6 11 -13 20 -16 20
-2 0 0 -9 6 -20z"/>
<path d="M5016 4102 c-10 -9 -7 -32 4 -32 5 0 7 6 4 14 -4 11 0 13 15 9 12 -3
21 -3 21 0 0 7 -38 16 -44 9z"/>
<path d="M4990 4071 c0 -10 19 -25 25 -20 1 2 -3 10 -11 17 -8 7 -14 8 -14 3z"/>
<path d="M5050 4056 c0 -2 8 -10 18 -17 15 -13 16 -12 3 4 -13 16 -21 21 -21
13z"/>
<path d="M5003 4022 c10 -4 18 -12 17 -17 -1 -5 4 -11 12 -13 11 -3 11 -2 0 6
-8 5 -13 13 -12 18 0 5 -7 10 -17 11 -17 3 -17 2 0 -5z"/>
<path d="M4999 3983 c0 -5 -3 -19 -5 -32 -2 -14 -2 -22 1 -19 8 8 17 58 10 58
-3 0 -5 -3 -6 -7z"/>
<path d="M5032 3971 c-11 -7 -11 -9 0 -14 9 -3 15 1 15 9 0 8 -1 14 -1 14 -1
0 -7 -4 -14 -9z"/>
<path d="M5071 3947 c-8 -10 -7 -14 2 -14 8 0 14 6 14 14 0 7 -1 13 -2 13 -2
0 -8 -6 -14 -13z"/>
<path d="M5018 3942 c0 -4 -2 -11 -3 -17 -2 -5 -3 -14 -4 -20 -1 -5 -6 -3 -11
5 -6 9 -10 10 -10 3 0 -18 21 -27 30 -13 5 7 6 19 3 27 -4 9 0 11 11 7 9 -3
16 -4 16 -1 0 8 -30 17 -32 9z"/>
<path d="M5003 3862 c10 -4 18 -12 17 -17 -1 -5 4 -11 12 -13 11 -3 11 -2 0 6
-8 5 -13 13 -12 18 0 5 -7 10 -17 11 -17 3 -17 2 0 -5z"/>
<path d="M4999 3823 c0 -5 -3 -19 -5 -32 -2 -14 -2 -22 1 -19 8 8 17 58 10 58
-3 0 -5 -3 -6 -7z"/>
<path d="M5090 3820 c0 -5 5 -10 11 -10 5 0 7 5 4 10 -3 6 -8 10 -11 10 -2 0
-4 -4 -4 -10z"/>
<path d="M5032 3811 c-11 -7 -11 -9 0 -14 9 -3 15 1 15 9 0 8 -1 14 -1 14 -1
0 -7 -4 -14 -9z"/>
<path d="M5016 3782 c-10 -9 -7 -32 4 -32 5 0 7 6 4 14 -4 11 0 13 15 9 12 -3
21 -3 21 0 0 7 -38 16 -44 9z"/>
<path d="M4999 3663 c0 -5 -3 -19 -5 -32 -2 -14 -2 -22 1 -19 8 8 17 58 10 58
-3 0 -5 -3 -6 -7z"/>
<path d="M5053 3645 c0 -8 4 -12 9 -9 5 3 6 10 3 15 -9 13 -12 11 -12 -6z"/>
<path d="M5069 3623 c-13 -16 -12 -17 4 -4 16 13 21 21 13 21 -2 0 -10 -8 -17
-17z"/>
<path d="M5016 3621 c-9 -14 1 -45 15 -49 8 -2 10 0 4 5 -17 14 -18 43 0 37 8
-3 15 -4 15 -1 0 9 -29 16 -34 8z"/>
<path d="M5106 3602 c-3 -5 1 -9 9 -9 8 0 12 4 9 9 -3 4 -7 8 -9 8 -2 0 -6 -4
-9 -8z"/>
<path d="M5007 3559 c7 -7 15 -10 18 -7 3 3 -2 9 -12 12 -14 6 -15 5 -6 -5z"/>
<path d="M5069 3543 c-13 -16 -12 -17 4 -4 16 13 21 21 13 21 -2 0 -10 -8 -17
-17z"/>
<path d="M5026 3524 c-5 -14 -4 -15 9 -4 17 14 19 20 6 20 -5 0 -12 -7 -15
-16z"/>
<path d="M4999 3503 c0 -5 -3 -19 -5 -32 -2 -14 -2 -22 1 -19 8 8 17 58 10 58
-3 0 -5 -3 -6 -7z"/>
<path d="M5020 3486 c0 -2 7 -7 16 -10 8 -3 12 -2 9 4 -6 10 -25 14 -25 6z"/>
<path d="M5069 3463 c-13 -16 -12 -17 4 -4 16 13 21 21 13 21 -2 0 -10 -8 -17
-17z"/>
<path d="M5016 3463 c-10 -10 -7 -33 4 -33 5 0 7 7 4 15 -5 11 -2 13 10 9 9
-3 16 -4 16 -1 0 8 -28 16 -34 10z"/>
<path d="M5015 3371 c-6 -11 13 -26 22 -17 4 3 1 6 -6 6 -7 0 -9 5 -6 10 3 6
4 10 1 10 -3 0 -7 -4 -11 -9z"/>
<path d="M4999 3343 c0 -5 -3 -19 -5 -32 -2 -14 -2 -22 1 -19 8 8 17 58 10 58
-3 0 -5 -3 -6 -7z"/>
<path d="M5032 3331 c-11 -7 -11 -9 0 -14 9 -3 15 1 15 9 0 8 -1 14 -1 14 -1
0 -7 -4 -14 -9z"/>
<path d="M5069 3303 c-13 -16 -12 -17 4 -4 16 13 21 21 13 21 -2 0 -10 -8 -17
-17z"/>
<path d="M5018 3302 c0 -4 -2 -11 -3 -17 -2 -5 -3 -14 -4 -20 -1 -5 -6 -3 -11
5 -6 9 -10 10 -10 3 0 -18 21 -27 30 -13 5 7 6 19 3 27 -4 9 0 11 11 7 9 -3
16 -4 16 -1 0 8 -30 17 -32 9z"/>
<path d="M4999 3183 c0 -5 -3 -19 -5 -32 -2 -14 -2 -22 1 -19 8 8 17 58 10 58
-3 0 -5 -3 -6 -7z"/>
<path d="M5020 3166 c0 -2 7 -7 16 -10 8 -3 12 -2 9 4 -6 10 -25 14 -25 6z"/>
<path d="M5069 3143 c-13 -16 -12 -17 4 -4 16 13 21 21 13 21 -2 0 -10 -8 -17
-17z"/>
<path d="M5018 3142 c0 -4 -2 -11 -3 -17 -2 -5 -3 -14 -4 -20 -1 -5 -6 -3 -11
5 -6 9 -10 10 -10 3 0 -18 21 -27 30 -13 5 7 6 19 3 27 -4 9 0 11 11 7 9 -3
16 -4 16 -1 0 8 -30 17 -32 9z"/>
<path d="M5070 3071 c0 -6 4 -13 10 -16 6 -3 7 1 4 9 -7 18 -14 21 -14 7z"/>
<path d="M5038 3053 c7 -3 16 -2 19 1 4 3 -2 6 -13 5 -11 0 -14 -3 -6 -6z"/>
<path d="M4999 3023 c0 -5 -3 -19 -5 -32 -2 -14 -2 -22 1 -19 8 8 17 58 10 58
-3 0 -5 -3 -6 -7z"/>
<path d="M5069 2983 c-13 -16 -12 -17 4 -4 16 13 21 21 13 21 -2 0 -10 -8 -17
-17z"/>
<path d="M5016 2981 c-9 -14 1 -45 15 -49 8 -2 10 0 4 5 -17 14 -18 43 0 37 8
-3 15 -4 15 -1 0 9 -29 16 -34 8z"/>
<path d="M5007 2919 c7 -7 15 -10 18 -7 3 3 -2 9 -12 12 -14 6 -15 5 -6 -5z"/>
<path d="M5069 2903 c-13 -16 -12 -17 4 -4 16 13 21 21 13 21 -2 0 -10 -8 -17
-17z"/>
<path d="M5026 2884 c-5 -14 -4 -15 9 -4 17 14 19 20 6 20 -5 0 -12 -7 -15
-16z"/>
<path d="M5020 2846 c0 -2 7 -7 16 -10 8 -3 12 -2 9 4 -6 10 -25 14 -25 6z"/>
<path d="M5069 2823 c-13 -16 -12 -17 4 -4 16 13 21 21 13 21 -2 0 -10 -8 -17
-17z"/>
<path d="M5016 2823 c-10 -10 -7 -33 4 -33 5 0 7 7 4 15 -5 11 -2 13 10 9 9
-3 16 -4 16 -1 0 8 -28 16 -34 10z"/>
<path d="M4990 2791 c0 -10 19 -25 25 -20 1 2 -3 10 -11 17 -8 7 -14 8 -14 3z"/>
<path d="M5038 2733 c7 -3 16 -2 19 1 4 3 -2 6 -13 5 -11 0 -14 -3 -6 -6z"/>
<path d="M4996 2693 c-6 -14 -5 -15 5 -6 7 7 10 15 7 18 -3 3 -9 -2 -12 -12z"/>
<path d="M5006 2675 c-11 -8 -16 -18 -12 -22 4 -4 12 0 17 10 6 9 14 15 20 12
5 -4 9 -1 9 4 0 15 -11 13 -34 -4z"/>
<path d="M5026 2636 c3 -9 13 -16 22 -16 8 0 13 1 11 3 -2 1 -12 9 -22 16 -15
12 -17 12 -11 -3z"/>
<path d="M5015 2581 c-3 -5 0 -13 6 -17 7 -4 9 -3 5 4 -3 5 0 13 6 15 9 4 10
6 1 6 -6 1 -14 -3 -18 -8z"/>
<path d="M4994 2535 c0 -25 3 -39 8 -32 4 6 5 21 1 32 -5 16 -3 18 8 8 10 -8
19 -9 29 -1 12 8 12 9 -2 4 -11 -3 -23 3 -31 14 -13 18 -14 16 -13 -25z"/>
<path d="M5068 2543 c7 -3 16 -2 19 1 4 3 -2 6 -13 5 -11 0 -14 -3 -6 -6z"/>
<path d="M5073 2523 c4 -3 1 -13 -6 -22 -11 -14 -10 -14 5 -2 16 12 16 31 1
31 -4 0 -3 -3 0 -7z"/>
<path d="M5018 2502 c0 -4 -2 -11 -3 -17 -2 -5 -3 -14 -4 -20 -1 -5 -6 -3 -11
5 -6 9 -10 10 -10 3 0 -18 21 -27 30 -13 5 7 6 19 3 27 -4 9 0 11 11 7 9 -3
16 -4 16 -1 0 8 -30 17 -32 9z"/>
<path d="M5069 2423 c-13 -16 -12 -17 4 -4 9 7 17 15 17 17 0 8 -8 3 -21 -13z"/>
<path d="M5026 2404 c-5 -14 -4 -15 9 -4 17 14 19 20 6 20 -5 0 -12 -7 -15
-16z"/>
<path d="M4996 2373 c-6 -14 -5 -15 5 -6 7 7 10 15 7 18 -3 3 -9 -2 -12 -12z"/>
<path d="M5006 2355 c-11 -8 -16 -18 -12 -22 4 -4 12 0 17 10 6 9 14 15 20 12
5 -4 9 -1 9 4 0 15 -11 13 -34 -4z"/>
<path d="M5090 2339 c0 -5 5 -7 10 -4 6 3 10 8 10 11 0 2 -4 4 -10 4 -5 0 -10
-5 -10 -11z"/>
<path d="M5026 2316 c3 -9 13 -16 22 -16 8 0 13 1 11 3 -2 1 -12 9 -22 16 -15
12 -17 12 -11 -3z"/>
<path d="M5019 2268 c-6 -23 -7 -48 -1 -51 4 -3 16 0 27 4 18 9 18 9 -3 5 -17
-3 -22 0 -20 12 2 10 8 20 13 24 6 5 5 8 -2 8 -7 0 -13 -1 -14 -2z"/>
<path d="M4993 2200 c0 -23 3 -28 9 -16 5 9 5 23 0 32 -6 12 -9 7 -9 -16z"/>
<path d="M5073 2203 c4 -3 1 -13 -6 -22 -11 -14 -10 -14 5 -2 16 12 16 31 1
31 -4 0 -3 -3 0 -7z"/>
<path d="M5018 2182 c0 -4 -2 -11 -3 -17 -2 -5 -3 -14 -4 -20 -1 -5 -6 -3 -11
5 -6 9 -10 10 -10 3 0 -18 21 -27 30 -13 5 7 6 19 3 27 -4 9 0 11 11 7 9 -3
16 -4 16 -1 0 8 -30 17 -32 9z"/>
<path d="M4999 2063 c0 -5 -3 -19 -5 -32 -2 -14 -2 -22 1 -19 8 8 17 58 10 58
-3 0 -5 -3 -6 -7z"/>
<path d="M5115 2041 c-3 -5 -2 -12 3 -15 5 -3 9 1 9 9 0 17 -3 19 -12 6z"/>
<path d="M5069 2023 c-13 -16 -12 -17 4 -4 9 7 17 15 17 17 0 8 -8 3 -21 -13z"/>
<path d="M5016 2021 c-9 -14 1 -45 15 -49 8 -2 10 0 4 5 -17 14 -18 43 0 37 8
-3 15 -4 15 -1 0 9 -29 16 -34 8z"/>
<path d="M5113 1965 c0 -8 4 -12 9 -9 5 3 6 10 3 15 -9 13 -12 11 -12 -6z"/>
<path d="M5007 1959 c7 -7 15 -10 18 -7 3 3 -2 9 -12 12 -14 6 -15 5 -6 -5z"/>
<path d="M5069 1943 c-13 -16 -12 -17 4 -4 16 13 21 21 13 21 -2 0 -10 -8 -17
-17z"/>
<path d="M5027 1927 c-3 -8 0 -14 7 -14 7 0 13 6 13 14 0 7 -4 13 -8 13 -4 0
-9 -6 -12 -13z"/>
<path d="M5109 1923 c-13 -16 -12 -17 4 -4 16 13 21 21 13 21 -2 0 -10 -8 -17
-17z"/>
<path d="M5019 1883 c-1 -5 -1 -12 0 -17 1 -5 -5 -6 -14 -3 -8 4 -15 2 -15 -4
0 -6 8 -9 18 -7 9 2 16 10 14 17 -2 9 3 11 13 7 9 -3 13 -2 10 4 -7 12 -24 13
-26 3z"/>
<path d="M5046 1851 c-19 -7 -19 -8 0 -13 13 -3 21 0 21 8 0 8 -1 14 -1 13 -1
0 -10 -4 -20 -8z"/>
<path d="M5016 1821 c-4 -5 3 -7 14 -4 23 6 26 13 6 13 -8 0 -17 -4 -20 -9z"/>
<path d="M5086 1818 c3 -5 10 -6 15 -3 13 9 11 12 -6 12 -8 0 -12 -4 -9 -9z"/>
<path d="M5042 1777 c-8 -10 -5 -16 11 -27 20 -12 21 -12 9 3 -8 9 -11 21 -7
27 9 14 0 13 -13 -3z"/>
<path d="M5073 1774 c0 -9 4 -11 12 -4 7 5 14 9 16 7 2 -1 3 0 1 2 -7 11 -29
7 -29 -5z"/>
<path d="M5055 1719 c-4 -6 -4 -13 -1 -16 3 -4 6 -1 6 6 0 7 5 9 12 5 7 -4 8
-3 4 4 -9 15 -13 15 -21 1z"/>
<path d="M5075 1690 c-4 -6 -11 -7 -17 -4 -7 4 -8 2 -4 -5 6 -9 11 -9 22 0 14
11 18 19 10 19 -3 0 -8 -5 -11 -10z"/>
<path d="M4998 1683 c7 -3 16 -2 19 1 4 3 -2 6 -13 5 -11 0 -14 -3 -6 -6z"/>
<path d="M5035 1661 c3 -19 1 -21 -18 -16 -19 5 -20 5 -4 -5 9 -6 21 -9 26 -6
10 7 9 31 -2 42 -3 4 -4 -3 -2 -15z"/>
<path d="M4999 1623 c0 -5 -2 -18 -3 -30 -1 -12 1 -20 4 -18 8 5 11 55 4 55
-2 0 -4 -3 -5 -7z"/>
<path d="M5036 1615 c-11 -8 -15 -15 -9 -15 6 0 16 7 23 15 16 19 11 19 -14 0z"/>
<path d="M5070 1606 c0 -2 7 -7 16 -10 8 -3 12 -2 9 4 -6 10 -25 14 -25 6z"/>
<path d="M5013 1563 c9 -8 57 -13 57 -6 0 5 -14 9 -31 9 -16 1 -28 0 -26 -3z"/>
<path d="M5050 1490 c-9 -6 -10 -10 -3 -10 6 0 15 5 18 10 8 12 4 12 -15 0z"/>
<path d="M5030 1460 c0 -5 5 -10 10 -10 6 0 10 5 10 10 0 6 -4 10 -10 10 -5 0
-10 -4 -10 -10z"/>
<path d="M4998 1443 c7 -3 16 -2 19 1 4 3 -2 6 -13 5 -11 0 -14 -3 -6 -6z"/>
<path d="M5056 1407 c3 -10 9 -15 12 -12 3 3 0 11 -7 18 -10 9 -11 8 -5 -6z"/>
<path d="M5011 1393 c12 -15 12 -16 -3 -10 -10 3 -18 2 -18 -3 0 -11 23 -14
33 -4 8 8 -3 34 -15 34 -6 0 -4 -8 3 -17z"/>
<path d="M5086 1398 c3 -5 10 -6 15 -3 13 9 11 12 -6 12 -8 0 -12 -4 -9 -9z"/>
<path d="M5046 1371 c-19 -7 -19 -8 0 -13 13 -3 21 0 21 8 0 8 -1 14 -1 13 -1
0 -10 -4 -20 -8z"/>
<path d="M5016 1341 c-4 -5 3 -7 14 -4 23 6 26 13 6 13 -8 0 -17 -4 -20 -9z"/>
<path d="M5086 1338 c3 -5 10 -6 15 -3 13 9 11 12 -6 12 -8 0 -12 -4 -9 -9z"/>
<path d="M5042 1298 c-7 -7 -12 -16 -12 -22 0 -5 3 -6 7 -3 3 4 11 2 18 -3 8
-7 12 -5 12 5 0 8 -5 11 -10 8 -6 -4 -8 0 -4 10 8 20 5 21 -11 5z"/>
<path d="M5130 1286 c0 -2 7 -7 16 -10 8 -3 12 -2 9 4 -6 10 -25 14 -25 6z"/>
<path d="M4997 1269 c7 -7 15 -10 18 -7 3 3 -2 9 -12 12 -14 6 -15 5 -6 -5z"/>
<path d="M5055 1239 c-4 -6 -5 -12 -2 -15 2 -3 7 2 10 11 7 17 1 20 -8 4z"/>
<path d="M5159 1213 c-13 -16 -12 -17 4 -4 9 7 17 15 17 17 0 8 -8 3 -21 -13z"/>
<path d="M4998 1203 c7 -3 16 -2 19 1 4 3 -2 6 -13 5 -11 0 -14 -3 -6 -6z"/>
<path d="M5035 1181 c3 -19 1 -21 -18 -15 -12 3 -19 3 -15 -1 4 -4 19 -9 33
-11 23 -2 24 0 13 13 -7 9 -11 18 -10 20 2 3 1 7 -2 10 -3 3 -3 -4 -1 -16z"/>
<path d="M5079 1153 c-13 -16 -12 -17 4 -4 9 7 17 15 17 17 0 8 -8 3 -21 -13z"/>
<path d="M4999 1143 c0 -5 -2 -18 -3 -30 -1 -12 1 -20 4 -18 8 5 11 55 4 55
-2 0 -4 -3 -5 -7z"/>
<path d="M5030 1130 c-9 -6 -10 -10 -3 -10 6 0 15 5 18 10 8 12 4 12 -15 0z"/>
<path d="M5070 1126 c0 -2 7 -7 16 -10 8 -3 12 -2 9 4 -6 10 -25 14 -25 6z"/>
<path d="M5116 1087 c3 -10 9 -15 12 -12 3 3 0 11 -7 18 -10 9 -11 8 -5 -6z"/>
<path d="M5000 1080 c-8 -5 -10 -10 -5 -10 6 0 17 5 25 10 8 5 11 10 5 10 -5
0 -17 -5 -25 -10z"/>
<path d="M5016 1061 c-3 -4 6 -6 19 -3 14 2 25 6 25 8 0 8 -39 4 -44 -5z"/>
<path d="M5073 1055 c0 -8 4 -12 9 -9 5 3 6 10 3 15 -9 13 -12 11 -12 -6z"/>
<path d="M5009 1008 c-7 -12 -6 -18 1 -18 6 0 8 -5 4 -12 -4 -6 -3 -8 4 -5 5
4 8 16 5 27 -4 15 -2 19 10 14 8 -3 17 -2 20 3 3 5 -3 9 -15 9 -11 0 -24 -8
-29 -18z"/>
<path d="M5070 1001 c0 -6 4 -13 10 -16 6 -3 7 1 4 9 -7 18 -14 21 -14 7z"/>
<path d="M5053 963 c1 -17 4 -19 14 -11 15 12 18 22 4 14 -5 -4 -11 0 -14 6
-3 7 -4 3 -4 -9z"/>
<path d="M5030 941 c0 -6 4 -13 10 -16 6 -3 7 1 4 9 -7 18 -14 21 -14 7z"/>
<path d="M5011 913 c12 -15 12 -16 -4 -10 -11 4 -16 3 -12 -3 3 -6 1 -10 -6
-10 -7 0 -10 -3 -7 -6 12 -11 47 16 42 31 -4 8 -11 15 -16 15 -6 0 -4 -8 3
-17z"/>
<path d="M5153 885 c0 -8 4 -12 9 -9 5 3 6 10 3 15 -9 13 -12 11 -12 -6z"/>
<path d="M5030 878 c0 -4 4 -8 9 -8 6 0 12 4 15 8 3 5 -1 9 -9 9 -8 0 -15 -4
-15 -9z"/>
<path d="M5035 830 c6 -10 3 -12 -11 -7 -18 7 -18 6 -2 -6 10 -8 16 -17 13
-20 -3 -4 -2 -5 2 -2 12 9 12 34 1 42 -7 4 -8 1 -3 -7z"/>
<path d="M5069 818 c7 -9 9 -23 5 -30 -6 -10 -4 -11 7 0 11 10 10 15 -6 30
-17 15 -18 15 -6 0z"/>
<path d="M4970 810 c0 -6 7 -13 15 -16 8 -4 13 -10 10 -14 -3 -5 1 -15 9 -23
8 -8 12 -18 8 -22 -4 -5 -1 -5 6 -1 11 6 10 12 -5 29 -17 20 -17 20 2 14 18
-7 19 -6 3 6 -10 8 -15 17 -11 21 4 4 -1 4 -11 0 -14 -5 -17 -4 -12 4 4 7 2
12 -3 12 -6 0 -11 -5 -11 -10z"/>
<path d="M4966 777 c3 -10 9 -15 12 -12 3 3 0 11 -7 18 -10 9 -11 8 -5 -6z"/>
<path d="M4953 743 c0 -18 5 -33 10 -33 6 0 7 3 4 7 -4 3 1 12 11 20 15 13 15
14 0 9 -10 -3 -18 1 -21 12 -2 9 -4 2 -4 -15z"/>
<path d="M5055 759 c-3 -4 2 -6 10 -5 21 3 28 13 10 13 -9 0 -18 -4 -20 -8z"/>
<path d="M4984 712 c-4 -9 -6 -20 -6 -24 3 -13 -10 -9 -32 10 l-21 17 19 -23
c20 -23 41 -25 41 -3 0 6 6 16 14 20 8 5 9 11 3 15 -5 3 -13 -2 -18 -12z"/>
<path d="M5025 719 c-4 -6 -4 -13 -1 -16 3 -4 6 -1 6 6 0 7 5 9 12 5 7 -4 8
-3 4 4 -9 15 -13 15 -21 1z"/>
<path d="M5095 701 c-3 -5 -2 -12 3 -15 5 -3 9 1 9 9 0 17 -3 19 -12 6z"/>
<path d="M4997 673 c-10 -9 -9 -23 1 -23 5 0 9 7 9 15 0 17 -1 18 -10 8z"/>
<path d="M4948 643 c6 -2 18 -2 25 0 6 3 1 5 -13 5 -14 0 -19 -2 -12 -5z"/>
<path d="M5026 638 c3 -5 10 -6 15 -3 13 9 11 12 -6 12 -8 0 -12 -4 -9 -9z"/>
<path d="M4990 629 c0 -5 -5 -7 -12 -3 -7 4 -8 3 -4 -4 4 -6 13 -9 21 -6 8 4
12 10 9 15 -7 12 -14 11 -14 -2z"/>
<path d="M5000 600 c-12 -7 -10 -9 7 -7 12 0 19 5 17 9 -6 10 -6 10 -24 -2z"/>
<path d="M1916 582 c-3 -4 4 -9 15 -9 23 -2 25 3 4 10 -8 4 -16 3 -19 -1z"/>
<path d="M4937 583 c-2 -5 -3 -17 -3 -27 1 -19 32 -31 41 -16 3 5 -4 7 -15 5
-27 -5 -23 27 5 37 19 6 19 6 -2 7 -12 1 -24 -2 -26 -6z"/>
<path d="M5013 555 c0 -8 4 -12 9 -9 4 3 8 9 8 15 0 5 -4 9 -8 9 -5 0 -9 -7
-9 -15z"/>
<path d="M1955 529 c-4 -6 -5 -12 -2 -15 2 -3 7 2 10 11 7 17 1 20 -8 4z"/>
<path d="M4910 526 c0 -2 7 -7 16 -10 8 -3 12 -2 9 4 -6 10 -25 14 -25 6z"/>
<path d="M4980 520 c-9 -6 -10 -10 -3 -10 6 0 15 5 18 10 8 12 4 12 -15 0z"/>
<path d="M4946 503 c-6 -14 -5 -15 5 -6 7 7 10 15 7 18 -3 3 -9 -2 -12 -12z"/>
<path d="M5006 502 c-3 -5 1 -9 9 -9 8 0 12 4 9 9 -3 4 -7 8 -9 8 -2 0 -6 -4
-9 -8z"/>
<path d="M1995 480 c3 -5 8 -10 11 -10 2 0 4 5 4 10 0 6 -5 10 -11 10 -5 0 -7
-4 -4 -10z"/>
<path d="M4900 486 c0 -2 9 -6 20 -9 11 -3 18 -1 14 4 -5 9 -34 13 -34 5z"/>
<path d="M4956 481 c-3 -4 6 -7 19 -7 14 0 22 2 19 5 -8 8 -34 10 -38 2z"/>
<path d="M2097 460 c-7 -11 -17 -18 -20 -15 -4 3 -5 2 -2 -2 3 -3 1 -11 -5
-17 -6 -8 -3 -12 9 -12 12 0 17 5 13 15 -3 9 -1 12 6 7 8 -5 10 -1 5 10 -4 11
-3 15 5 10 6 -3 13 -2 16 3 12 20 -13 21 -27 1z"/>
<path d="M4894 455 c-4 -8 -11 -12 -16 -9 -6 4 -5 -3 1 -15 7 -11 14 -21 17
-21 3 0 2 4 -1 10 -3 5 -1 19 5 30 6 11 8 20 5 20 -3 0 -8 -7 -11 -15z"/>
<path d="M2137 454 c-3 -3 -3 -13 0 -22 4 -10 2 -13 -5 -8 -6 3 -13 2 -16 -3
-4 -5 1 -8 10 -7 19 3 38 32 26 40 -5 3 -12 3 -15 0z"/>
<path d="M4915 449 c-4 -6 -5 -12 -2 -15 2 -3 7 2 10 11 7 17 1 20 -8 4z"/>
<path d="M4545 440 c-3 -5 -1 -10 4 -10 6 0 11 5 11 10 0 6 -2 10 -4 10 -3 0
-8 -4 -11 -10z"/>
<path d="M4570 441 c0 -5 11 -8 25 -8 30 0 28 6 -4 12 -11 2 -21 0 -21 -4z"/>
<path d="M2230 430 c0 -6 4 -9 9 -6 5 4 12 1 14 -4 3 -6 4 -5 3 2 -3 15 -26
23 -26 8z"/>
<path d="M2410 426 c7 -7 13 -7 20 0 6 6 3 10 -10 10 -13 0 -16 -4 -10 -10z"/>
<path d="M2672 428 c-16 -16 -15 -33 2 -47 10 -8 21 -7 45 5 18 9 30 18 27 21
-2 2 -13 0 -25 -6 -13 -7 -22 -8 -26 -1 -3 5 -1 10 6 10 7 0 10 3 6 6 -3 3
-11 3 -17 -1 -8 -5 -8 -11 1 -21 9 -10 9 -14 0 -14 -18 0 -25 29 -11 45 15 18
9 20 -8 3z"/>
<path d="M2913 428 c3 -9 -1 -25 -9 -37 -9 -12 -11 -21 -5 -21 6 0 11 5 11 11
0 5 4 8 9 5 4 -3 16 3 25 13 17 18 19 18 35 3 10 -9 16 -20 14 -24 -2 -4 4 -5
13 -1 10 4 13 8 7 10 -6 2 -9 16 -7 29 3 17 1 23 -6 19 -6 -4 -9 -13 -6 -21 3
-8 1 -14 -4 -14 -9 0 -13 12 -12 30 0 3 -8 6 -18 6 -10 0 -16 -5 -13 -12 2 -6
-4 -17 -13 -25 -15 -12 -16 -12 -10 8 4 13 2 24 -5 29 -8 5 -10 2 -6 -8z"/>
<path d="M3074 416 c2 -12 -4 -26 -13 -33 -9 -7 -11 -13 -5 -13 6 0 22 10 36
23 24 22 26 23 46 6 12 -9 18 -20 14 -23 -3 -4 2 -4 12 0 13 5 17 4 12 -4 -3
-6 3 -16 15 -22 12 -7 19 -8 15 -2 -3 6 0 13 6 16 7 3 2 3 -11 0 -16 -4 -21
-3 -17 5 4 6 1 14 -8 17 -9 4 -13 14 -10 31 3 16 1 22 -6 18 -6 -4 -9 -14 -6
-22 4 -9 1 -13 -6 -10 -7 2 -12 11 -12 20 1 13 -2 14 -17 6 -11 -5 -19 -14
-19 -19 0 -6 -5 -10 -10 -10 -7 0 -7 6 -1 18 7 14 6 19 -4 19 -9 0 -13 -8 -11
-21z"/>
<path d="M3570 435 c0 -8 29 -12 39 -5 9 5 4 8 -13 8 -14 0 -26 -2 -26 -3z"/>
<path d="M3688 433 c-10 -3 -18 -9 -18 -14 0 -6 4 -8 9 -4 5 3 12 1 16 -5 3
-5 -1 -10 -9 -10 -19 0 -21 -16 -4 -26 6 -4 8 -3 5 3 -4 6 0 13 8 17 9 3 12
12 8 23 -6 16 -5 16 10 4 15 -12 16 -16 4 -30 -24 -27 -32 -45 -17 -36 10 6
12 4 7 -9 -4 -10 -3 -15 4 -11 5 4 7 14 4 24 -6 21 38 66 55 56 8 -5 4 -11
-11 -19 -12 -6 -24 -17 -25 -24 -1 -7 0 -8 2 -3 3 6 13 7 22 4 13 -4 14 -3 4
5 -11 7 -9 10 7 15 16 4 19 10 14 24 -6 16 -5 16 10 4 15 -12 16 -16 4 -30 -8
-9 -17 -23 -22 -31 -4 -8 7 2 25 23 17 20 36 35 41 32 5 -4 9 -2 9 3 0 5 -9
12 -19 15 -15 4 -18 1 -13 -12 5 -14 4 -14 -12 -2 -24 20 -75 21 -68 1 5 -13
3 -13 -14 1 -10 8 -27 14 -36 12z"/>
<path d="M3866 425 c3 -7 -2 -18 -11 -25 -8 -7 -15 -9 -15 -5 0 4 -7 2 -15 -5
-17 -14 -20 -40 -5 -40 5 0 6 7 3 17 -4 10 -2 14 4 10 6 -4 16 0 23 8 11 13
14 13 26 -2 11 -15 15 -16 26 -4 11 12 10 13 -4 8 -14 -5 -17 -1 -14 22 2 17
-2 28 -10 28 -6 0 -10 -6 -8 -12z"/>
<path d="M4506 428 c3 -5 -2 -19 -12 -31 -10 -12 -12 -17 -5 -10 11 10 17 9
26 -4 7 -9 17 -13 24 -9 9 6 9 11 0 23 -11 12 -10 14 7 11 10 -1 28 -11 38
-20 10 -10 23 -15 28 -12 4 3 8 1 8 -5 0 -5 -6 -12 -12 -14 -10 -4 -10 -6 -1
-6 6 -1 15 4 18 9 9 14 -14 42 -28 33 -6 -4 -8 0 -5 8 5 12 -3 15 -33 14 -26
-1 -38 3 -35 10 2 7 -2 12 -10 12 -7 0 -11 -4 -8 -9z m24 -33 c7 -9 8 -15 2
-15 -5 0 -12 7 -16 15 -3 8 -4 15 -2 15 2 0 9 -7 16 -15z"/>
<path d="M2153 412 c-8 -14 -8 -19 1 -19 7 0 13 9 13 19 1 10 1 18 0 18 -1 0
-7 -8 -14 -18z"/>
<path d="M4804 419 c-5 -8 -3 -9 6 -4 10 6 12 4 7 -8 -3 -10 -2 -17 3 -17 13
0 13 27 1 35 -5 3 -13 0 -17 -6z"/>
<path d="M4853 414 c-3 -8 -2 -19 3 -24 5 -5 9 1 9 16 0 28 -3 30 -12 8z"/>
<path d="M2186 411 c-4 -5 3 -7 14 -4 23 6 26 13 6 13 -8 0 -17 -4 -20 -9z"/>
<path d="M3350 410 c0 -6 7 -10 15 -10 8 0 15 2 15 4 0 2 -7 6 -15 10 -8 3
-15 1 -15 -4z"/>
<path d="M4636 395 c15 -13 30 -22 33 -20 6 6 -39 45 -52 45 -6 0 3 -11 19
-25z"/>
<path d="M1996 402 c-3 -5 1 -9 9 -9 8 0 12 4 9 9 -3 4 -7 8 -9 8 -2 0 -6 -4
-9 -8z"/>
<path d="M2233 404 c4 -4 -1 -12 -10 -19 -13 -9 -13 -14 -3 -20 9 -6 11 -4 5
5 -6 10 -4 12 9 7 9 -4 15 -3 11 2 -3 5 0 11 7 13 7 3 4 7 -7 12 -11 4 -16 4
-12 0z"/>
<path d="M2806 394 c-5 -14 -4 -15 9 -4 17 14 19 20 6 20 -5 0 -12 -7 -15 -16z"/>
<path d="M4926 402 c-3 -5 1 -9 9 -9 8 0 12 4 9 9 -3 4 -7 8 -9 8 -2 0 -6 -4
-9 -8z"/>
<path d="M4996 395 c-3 -9 -11 -13 -17 -9 -8 5 -9 3 -4 -5 6 -10 11 -9 23 3 9
8 13 18 10 21 -3 3 -8 -1 -12 -10z"/>
<path d="M4070 390 c-13 -8 -12 -10 3 -10 9 0 17 5 17 10 0 12 -1 12 -20 0z"/>
<path d="M4790 391 c0 -10 19 -25 25 -20 1 2 -3 10 -11 17 -8 7 -14 8 -14 3z"/>
<path d="M2112 371 c7 -9 13 -18 15 -20 1 -2 1 5 0 16 0 11 -7 20 -14 20 -10
0 -10 -4 -1 -16z"/>
<path d="M2396 379 c2 -4 -2 -10 -8 -12 -7 -3 -8 -6 -2 -6 5 -1 19 5 30 13 19
14 18 15 -3 13 -12 0 -20 -4 -17 -8z"/>
<path d="M2950 380 c0 -6 5 -8 12 -4 8 5 9 2 5 -9 -3 -10 -2 -17 4 -17 14 0 7
32 -8 38 -7 2 -13 -1 -13 -8z"/>
<path d="M3110 380 c0 -5 5 -10 11 -10 5 0 7 -4 4 -10 -3 -5 -1 -10 4 -10 13
0 13 3 5 24 -7 18 -24 22 -24 6z"/>
<path d="M4277 378 c-13 -10 -14 -17 -6 -28 9 -13 10 -13 6 2 -4 9 1 19 10 22
11 5 14 2 9 -11 -6 -15 -5 -16 5 -5 19 18 -2 36 -24 20z"/>
<path d="M4909 377 c6 -8 7 -18 3 -22 -4 -5 -1 -5 6 -1 10 6 10 11 1 22 -6 8
-14 14 -16 14 -3 0 0 -6 6 -13z"/>
<path d="M2455 370 c-3 -6 1 -7 9 -4 18 7 21 14 7 14 -6 0 -13 -4 -16 -10z"/>
<path d="M3030 371 c0 -10 19 -25 25 -20 1 2 -3 10 -11 17 -8 7 -14 8 -14 3z"/>
<path d="M3415 370 c-3 -6 1 -7 9 -4 18 7 21 14 7 14 -6 0 -13 -4 -16 -10z"/>
<path d="M3561 364 c0 -11 3 -14 6 -6 3 7 2 16 -1 19 -3 4 -6 -2 -5 -13z"/>
<path d="M3906 364 c-11 -8 -16 -14 -10 -14 13 0 39 18 34 24 -3 2 -14 -2 -24
-10z"/>
<path d="M4226 364 c-11 -8 -16 -14 -10 -14 13 0 39 18 34 24 -3 2 -14 -2 -24
-10z"/>
<path d="M4550 365 c-11 -13 -10 -14 4 -9 9 3 16 10 16 15 0 13 -6 11 -20 -6z"/>
<path d="M4682 360 c0 -14 2 -19 5 -12 2 6 2 18 0 25 -3 6 -5 1 -5 -13z"/>
<path d="M4833 365 c0 -8 4 -12 9 -9 5 3 6 10 3 15 -9 13 -12 11 -12 -6z"/>
<path d="M2193 349 c-2 -23 3 -25 10 -4 4 8 3 16 -1 19 -4 3 -9 -4 -9 -15z"/>
<path d="M2284 354 c-18 -14 -18 -14 6 -3 31 14 36 19 24 19 -6 0 -19 -7 -30
-16z"/>
<path d="M2430 361 c0 -6 4 -13 10 -16 6 -3 7 1 4 9 -7 18 -14 21 -14 7z"/>
<path d="M2532 356 c7 -8 15 -12 17 -11 5 6 -10 25 -20 25 -5 0 -4 -6 3 -14z"/>
<path d="M2575 359 c-11 -16 -1 -19 13 -3 7 8 8 14 3 14 -5 0 -13 -5 -16 -11z"/>
<path d="M2640 360 c-8 -5 -10 -10 -5 -10 6 0 17 5 25 10 8 5 11 10 5 10 -5 0
-17 -5 -25 -10z"/>
<path d="M2700 360 c-18 -12 -2 -12 25 0 13 6 15 9 5 9 -8 0 -22 -4 -30 -9z"/>
<path d="M2806 355 c4 -8 8 -15 10 -15 2 0 4 7 4 15 0 8 -4 15 -10 15 -5 0 -7
-7 -4 -15z"/>
<path d="M2919 360 c-1 -5 -2 -15 -3 -20 0 -6 -8 -15 -16 -20 -8 -5 -10 -10
-4 -10 6 0 17 7 24 15 7 8 9 15 5 15 -4 0 -2 7 5 15 9 10 9 15 1 15 -6 0 -12
-4 -12 -10z"/>
<path d="M3000 355 c-7 -8 -9 -15 -4 -15 5 0 0 -7 -10 -15 -11 -8 -15 -15 -9
-15 6 0 16 7 23 15 7 8 9 15 5 15 -4 0 -2 7 5 15 7 8 10 15 7 15 -2 0 -10 -7
-17 -15z"/>
<path d="M3080 366 c0 -2 7 -7 16 -10 8 -3 12 -2 9 4 -6 10 -25 14 -25 6z"/>
<path d="M3305 360 c-3 -5 -2 -10 4 -10 5 0 13 5 16 10 3 6 2 10 -4 10 -5 0
-13 -4 -16 -10z"/>
<path d="M3390 361 c0 -6 4 -13 10 -16 6 -3 7 1 4 9 -7 18 -14 21 -14 7z"/>
<path d="M3492 356 c7 -8 15 -12 17 -11 5 6 -10 25 -20 25 -5 0 -4 -6 3 -14z"/>
<path d="M3650 360 c0 -5 5 -10 10 -10 6 0 10 5 10 10 0 6 -4 10 -10 10 -5 0
-10 -4 -10 -10z"/>
<path d="M3845 360 c-3 -6 1 -7 9 -4 18 7 21 14 7 14 -6 0 -13 -4 -16 -10z"/>
<path d="M3996 355 c-9 -26 -7 -32 5 -12 6 10 9 21 6 23 -2 3 -7 -2 -11 -11z"/>
<path d="M4085 360 c-3 -6 1 -7 9 -4 18 7 21 14 7 14 -6 0 -13 -4 -16 -10z"/>
<path d="M4137 358 c-7 -5 0 -6 17 -4 16 3 31 7 33 10 8 8 -37 2 -50 -6z"/>
<path d="M4335 359 c-11 -16 -1 -19 13 -3 7 8 8 14 3 14 -5 0 -13 -5 -16 -11z"/>
<path d="M4476 358 c3 -4 0 -8 -7 -8 -7 0 -10 -3 -6 -6 3 -3 16 1 28 9 22 16
22 16 1 14 -11 0 -18 -5 -16 -9z"/>
<path d="M4770 360 c0 -5 5 -10 10 -10 6 0 10 5 10 10 0 6 -4 10 -10 10 -5 0
-10 -4 -10 -10z"/>
<path d="M2472 351 c-11 -6 -9 -9 6 -13 15 -4 19 -2 15 8 -6 16 -4 16 -21 5z"/>
<path d="M2867 347 c-3 -8 1 -14 9 -14 7 0 11 4 8 8 -2 4 2 10 8 12 8 4 7 6
-3 6 -9 1 -19 -5 -22 -12z"/>
<path d="M3432 351 c-11 -6 -9 -9 6 -13 15 -4 19 -2 15 8 -6 16 -4 16 -21 5z"/>
<path d="M4387 346 c-4 -10 1 -12 14 -9 23 6 24 9 5 16 -8 3 -17 0 -19 -7z"/>
<path d="M4510 350 c-9 -6 -10 -10 -3 -10 6 0 15 5 18 10 8 12 4 12 -15 0z"/>
<path d="M4875 351 c-3 -5 -2 -12 3 -15 5 -3 9 1 9 9 0 17 -3 19 -12 6z"/>
<path d="M2150 338 c0 -4 4 -8 9 -8 6 0 12 4 15 8 3 5 -1 9 -9 9 -8 0 -15 -4
-15 -9z"/>
<path d="M2400 346 c0 -2 7 -7 16 -10 8 -3 12 -2 9 4 -6 10 -25 14 -25 6z"/>
<path d="M2516 333 c-6 -14 -5 -15 5 -6 7 7 10 15 7 18 -3 3 -9 -2 -12 -12z"/>
<path d="M2590 340 c0 -5 5 -10 11 -10 5 0 7 5 4 10 -3 6 -8 10 -11 10 -2 0
-4 -4 -4 -10z"/>
<path d="M2830 341 c0 -6 4 -13 10 -16 6 -3 7 1 4 9 -7 18 -14 21 -14 7z"/>
<path d="M3075 341 c3 -6 -3 -14 -12 -20 -10 -6 -13 -11 -7 -11 12 0 34 20 34
32 0 4 -5 8 -11 8 -5 0 -8 -4 -4 -9z"/>
<path d="M3150 340 c0 -5 5 -10 10 -10 6 0 10 5 10 10 0 6 -4 10 -10 10 -5 0
-10 -4 -10 -10z"/>
<path d="M3350 346 c0 -2 9 -6 20 -9 11 -3 18 -1 14 4 -5 9 -34 13 -34 5z"/>
<path d="M3476 333 c-6 -14 -5 -15 5 -6 7 7 10 15 7 18 -3 3 -9 -2 -12 -12z"/>
<path d="M3539 348 c0 -2 -2 -13 -3 -25 -2 -16 1 -20 9 -13 7 5 16 6 20 2 5
-4 5 -2 2 5 -4 6 -1 14 5 17 7 3 2 3 -11 0 -16 -4 -21 -3 -17 5 4 6 5 11 2 11
-3 0 -6 -1 -7 -2z"/>
<path d="M3791 343 c3 -20 -2 -27 -11 -13 -6 9 -10 10 -10 3 0 -19 17 -24 29
-9 9 10 9 16 1 21 -6 4 -10 3 -9 -2z"/>
<path d="M4031 343 c3 -20 -2 -27 -11 -13 -7 12 -9 10 -7 -7 1 -21 3 -21 19
-6 10 8 15 20 12 24 -6 11 -14 12 -13 2z"/>
<path d="M4095 340 c-3 -6 1 -7 9 -4 18 7 21 14 7 14 -6 0 -13 -4 -16 -10z"/>
<path d="M4175 340 c-3 -6 1 -7 9 -4 18 7 21 14 7 14 -6 0 -13 -4 -16 -10z"/>
<path d="M4310 341 c0 -6 4 -13 10 -16 6 -3 7 1 4 9 -7 18 -14 21 -14 7z"/>
<path d="M4350 341 c0 -6 4 -13 10 -16 6 -3 7 1 4 9 -7 18 -14 21 -14 7z"/>
<path d="M4633 328 c-2 -18 0 -20 7 -8 12 18 13 30 2 30 -4 0 -9 -10 -9 -22z"/>
<path d="M2213 325 c0 -7 5 -13 11 -12 6 1 10 -5 8 -13 -2 -8 0 -11 4 -7 4 4
9 15 10 23 1 9 0 13 -3 10 -4 -3 -11 -1 -18 4 -8 7 -12 5 -12 -5z"/>
<path d="M2701 318 c-12 -20 -12 -21 0 -12 8 6 22 10 32 9 9 -2 17 1 17 7 0 6
-6 8 -14 5 -8 -3 -16 -2 -18 4 -2 5 -9 -1 -17 -13z"/>
<path d="M3630 325 c0 -8 2 -15 4 -15 2 0 6 7 10 15 3 8 1 15 -4 15 -6 0 -10
-7 -10 -15z"/>
<path d="M3673 325 c0 -8 4 -15 9 -15 4 0 8 4 8 9 0 6 -4 12 -8 15 -5 3 -9 -1
-9 -9z"/>
<path d="M3901 318 c-12 -20 -12 -21 0 -12 8 6 22 10 32 9 9 -2 17 1 17 7 0 6
-6 8 -14 5 -8 -3 -16 -2 -18 4 -2 5 -9 -1 -17 -13z"/>
<path d="M4232 335 c4 -4 0 -14 -10 -21 -15 -12 -15 -12 6 -7 24 6 29 18 10
29 -7 4 -10 4 -6 -1z"/>
<path d="M4541 318 c-12 -20 -12 -21 0 -12 8 6 22 10 32 9 9 -2 17 1 17 7 0 6
-6 8 -14 5 -8 -3 -16 -2 -18 4 -2 5 -9 -1 -17 -13z"/>
<path d="M2310 320 c0 -5 5 -10 10 -10 6 0 10 5 10 10 0 6 -4 10 -10 10 -5 0
-10 -4 -10 -10z"/>
<path d="M2370 321 c0 -5 8 -8 18 -6 9 1 24 -2 32 -8 12 -9 13 -9 3 3 -15 16
-53 24 -53 11z"/>
<path d="M2946 317 c3 -10 9 -15 12 -12 3 3 0 11 -7 18 -10 9 -11 8 -5 -6z"/>
<path d="M3270 320 c0 -5 5 -10 10 -10 6 0 10 5 10 10 0 6 -4 10 -10 10 -5 0
-10 -4 -10 -10z"/>
<path d="M3330 321 c0 -5 8 -8 18 -6 9 1 24 -2 32 -8 12 -9 13 -9 3 3 -15 16
-53 24 -53 11z"/>
<path d="M3726 322 c-3 -5 1 -9 9 -9 8 0 12 4 9 9 -3 4 -7 8 -9 8 -2 0 -6 -4
-9 -8z"/>
<path d="M4456 318 c3 -5 10 -6 15 -3 13 9 11 12 -6 12 -8 0 -12 -4 -9 -9z"/>
<path d="M4710 318 c0 -6 3 -8 7 -5 3 4 11 2 18 -3 8 -7 12 -6 12 3 0 7 -9 14
-19 14 -10 1 -18 -3 -18 -9z"/>
<path d="M4827 319 c7 -7 15 -10 18 -7 3 3 -2 9 -12 12 -14 6 -15 5 -6 -5z"/>
<path d="M2133 305 c0 -8 4 -12 9 -9 5 3 6 10 3 15 -9 13 -12 11 -12 -6z"/>
<path d="M2794 306 c1 -8 5 -18 8 -22 4 -3 5 1 4 10 -1 8 -5 18 -8 22 -4 3 -5
-1 -4 -10z"/>
<path d="M3193 305 c0 -8 4 -12 9 -9 5 3 6 10 3 15 -9 13 -12 11 -12 -6z"/>
<path d="M4156 307 c3 -10 9 -15 12 -12 3 3 0 11 -7 18 -10 9 -11 8 -5 -6z"/>
<path d="M2175 300 c3 -5 8 -10 11 -10 2 0 4 5 4 10 0 6 -5 10 -11 10 -5 0 -7
-4 -4 -10z"/>
<path d="M2266 298 c3 -4 9 -8 15 -8 5 0 9 4 9 8 0 5 -7 9 -15 9 -8 0 -12 -4
-9 -9z"/>
<path d="M2470 296 c7 -7 13 -7 20 0 6 6 3 10 -10 10 -13 0 -16 -4 -10 -10z"/>
<path d="M2631 293 c7 -12 15 -20 18 -17 3 2 -3 12 -13 22 -17 16 -18 16 -5
-5z"/>
<path d="M2839 293 c-13 -16 -12 -17 4 -4 16 13 21 21 13 21 -2 0 -10 -8 -17
-17z"/>
<path d="M3230 296 c7 -7 13 -7 20 0 6 6 3 10 -10 10 -13 0 -16 -4 -10 -10z"/>
<path d="M3441 296 c-9 -11 -9 -16 1 -22 7 -4 10 -4 6 1 -4 4 -3 14 3 22 6 7
9 13 6 13 -2 0 -10 -6 -16 -14z"/>
<path d="M3829 297 c6 -8 7 -18 3 -22 -4 -5 -1 -5 6 -1 10 6 10 11 1 22 -6 8
-14 14 -16 14 -3 0 0 -6 6 -13z"/>
<path d="M4066 298 c3 -4 9 -8 15 -8 5 0 9 4 9 8 0 5 -7 9 -15 9 -8 0 -12 -4
-9 -9z"/>
<path d="M4319 308 c-5 -18 -6 -38 -1 -34 7 8 12 36 6 36 -2 0 -4 -1 -5 -2z"/>
<path d="M4350 296 c7 -7 13 -7 20 0 6 6 3 10 -10 10 -13 0 -16 -4 -10 -10z"/>
<path d="M3030 296 c0 -2 8 -10 18 -17 15 -13 16 -12 3 4 -13 16 -21 21 -21
13z"/>
<path d="M3116 287 c3 -10 9 -15 12 -12 3 3 0 11 -7 18 -10 9 -11 8 -5 -6z"/>
<path d="M3275 289 c-4 -6 -5 -12 -2 -15 2 -3 7 2 10 11 7 17 1 20 -8 4z"/>
<path d="M3665 280 c10 -11 20 -20 23 -20 3 0 -3 9 -13 20 -10 11 -20 20 -23
20 -3 0 3 -9 13 -20z"/>
<path d="M4145 280 c10 -11 20 -20 23 -20 3 0 -3 9 -13 20 -10 11 -20 20 -23
20 -3 0 3 -9 13 -20z"/>
<path d="M4690 296 c0 -2 8 -10 18 -17 15 -13 16 -12 3 4 -13 16 -21 21 -21
13z"/>
<path d="M2540 286 c0 -2 8 -10 18 -17 15 -13 16 -12 3 4 -13 16 -21 21 -21
13z"/>
<path d="M2670 280 c0 -5 5 -10 11 -10 5 0 7 5 4 10 -3 6 -8 10 -11 10 -2 0
-4 -4 -4 -10z"/>
<path d="M2706 278 c3 -5 10 -6 15 -3 13 9 11 12 -6 12 -8 0 -12 -4 -9 -9z"/>
<path d="M2880 280 c-9 -6 -10 -10 -3 -10 6 0 15 5 18 10 8 12 4 12 -15 0z"/>
<path d="M3475 281 c-3 -5 -2 -12 3 -15 5 -3 9 1 9 9 0 17 -3 19 -12 6z"/>
<path d="M3790 281 c0 -6 4 -13 10 -16 6 -3 7 1 4 9 -7 18 -14 21 -14 7z"/>
<path d="M3900 285 c0 -2 6 -8 13 -14 10 -8 14 -7 14 2 0 8 -6 14 -14 14 -7 0
-13 -1 -13 -2z"/>
<path d="M4035 281 c-3 -5 -2 -12 3 -15 5 -3 9 1 9 9 0 17 -3 19 -12 6z"/>
<path d="M4516 278 c3 -5 10 -6 15 -3 13 9 11 12 -6 12 -8 0 -12 -4 -9 -9z"/>
<path d="M4555 281 c-3 -5 -2 -12 3 -15 5 -3 9 1 9 9 0 17 -3 19 -12 6z"/>
<path d="M4826 278 c3 -5 10 -6 15 -3 13 9 11 12 -6 12 -8 0 -12 -4 -9 -9z"/>
<path d="M2253 265 c0 -8 4 -12 9 -9 5 3 6 10 3 15 -9 13 -12 11 -12 -6z"/>
<path d="M2330 265 c0 -7 30 -13 34 -7 3 4 -4 9 -15 9 -10 1 -19 0 -19 -2z"/>
<path d="M2456 258 c3 -4 11 -5 19 -1 21 7 19 12 -4 10 -11 0 -18 -5 -15 -9z"/>
<path d="M2825 260 c-3 -6 1 -7 9 -4 18 7 21 14 7 14 -6 0 -13 -4 -16 -10z"/>
<path d="M3093 249 c-2 -23 3 -25 10 -4 4 8 3 16 -1 19 -4 3 -9 -4 -9 -15z"/>
<path d="M3585 260 c-3 -6 1 -7 9 -4 18 7 21 14 7 14 -6 0 -13 -4 -16 -10z"/>
<path d="M3705 260 c-3 -6 1 -7 9 -4 18 7 21 14 7 14 -6 0 -13 -4 -16 -10z"/>
</g>
</svg>
