<?xml version="1.0" standalone="no"?>
<!DOCTYPE svg PUBLIC "-//W3C//DTD SVG 20010904//EN"
 "http://www.w3.org/TR/2001/REC-SVG-20010904/DTD/svg10.dtd">
<svg version="1.0" xmlns="http://www.w3.org/2000/svg"
 width="640.000000pt" height="640.000000pt" viewBox="0 0 640.000000 640.000000"
 preserveAspectRatio="xMidYMid meet">
<metadata>
Created by potrace 1.14, written by Peter Selinger 2001-2017
</metadata>
<g transform="translate(0.000000,640.000000) scale(0.100000,-0.100000)"
fill="#000000" stroke="none">
<path d="M3435 6291 c-16 -4 -65 -6 -107 -5 -42 1 -77 -2 -76 -5 3 -31 -4 -37
-47 -37 -43 0 -51 7 -46 38 0 4 -226 6 -502 5 -462 -2 -505 -3 -521 -19 -9
-10 -25 -23 -34 -30 -17 -13 -66 -75 -89 -113 -7 -11 -38 -65 -70 -120 -31
-55 -60 -102 -63 -105 -3 -3 -14 -23 -25 -45 -11 -22 -24 -43 -30 -47 -7 -5
-7 -8 0 -8 6 0 1 -7 -9 -15 -11 -8 -17 -15 -13 -15 3 0 -6 -21 -21 -47 -16
-27 -37 -67 -47 -90 -10 -24 -22 -43 -27 -43 -4 0 -7 -3 -6 -7 2 -5 -18 -51
-43 -103 -73 -149 -99 -209 -99 -225 0 -8 -4 -15 -10 -15 -5 0 -10 -8 -10 -18
0 -10 -8 -29 -17 -42 -10 -14 -23 -38 -29 -55 -119 -322 -138 -380 -129 -395
3 -6 2 -10 -3 -10 -5 0 -9 -6 -9 -13 0 -20 -33 -66 -52 -72 -15 -5 -17 -23
-15 -183 3 -228 5 -240 36 -267 l26 -22 0 -953 0 -952 -24 -22 c-14 -11 -27
-37 -30 -56 -5 -28 -7 -355 -4 -422 2 -21 49 -70 61 -62 5 3 9 2 8 -3 -1 -4 0
-15 3 -23 8 -21 30 -104 30 -110 0 -3 3 -9 8 -15 4 -5 13 -30 20 -55 7 -25 21
-63 31 -84 10 -22 19 -48 19 -58 0 -10 4 -18 10 -18 5 0 9 -3 8 -8 -3 -8 23
-74 31 -82 7 -6 20 -35 62 -135 19 -44 36 -82 39 -85 3 -3 7 -14 8 -25 2 -11
8 -22 13 -23 5 -2 7 -8 3 -13 -3 -5 0 -9 6 -9 6 0 9 -4 6 -9 -4 -5 -3 -11 1
-13 5 -1 32 -52 62 -113 30 -60 58 -112 63 -113 4 -2 8 -12 8 -23 0 -10 5 -19
11 -19 5 0 8 -4 5 -9 -3 -5 1 -14 9 -21 8 -7 15 -18 15 -25 0 -7 7 -18 15 -25
9 -7 13 -15 11 -17 -3 -3 0 -10 5 -17 18 -21 89 -145 89 -155 0 -6 3 -11 8
-11 4 0 13 -15 21 -32 8 -18 17 -35 21 -38 3 -3 17 -23 30 -45 53 -87 142
-164 176 -151 8 3 14 0 14 -7 0 -7 3 -8 8 -2 9 13 225 13 234 0 5 -7 8 -7 8 0
0 6 38 10 92 10 51 0 96 -4 100 -10 5 -7 8 -7 8 0 0 6 88 10 246 9 199 -2 244
1 240 11 -3 8 1 17 7 22 11 8 25 8 79 4 11 -1 16 -8 13 -21 -4 -19 1 -20 61
-17 36 2 67 0 69 -3 2 -3 31 -3 64 0 35 3 65 2 71 -4 6 -6 10 -6 10 -1 0 6 29
10 65 10 37 0 65 -4 65 -10 0 -7 3 -7 8 0 4 6 59 10 127 10 68 0 123 -4 127
-10 5 -7 8 -7 8 0 0 6 57 9 155 8 l155 -1 49 44 c42 37 137 168 129 176 -4 4
44 71 55 79 5 3 7 8 6 10 -4 5 65 131 93 172 11 15 16 27 11 27 -4 0 -3 4 3 8
6 4 33 50 59 102 27 52 53 98 59 102 6 4 8 8 4 8 -4 0 9 31 28 70 19 38 33 71
32 72 -1 2 11 23 28 48 17 25 39 72 48 105 10 33 24 70 32 82 8 13 12 23 9 23
-2 0 3 9 13 20 9 12 17 24 18 28 5 34 18 73 25 78 5 3 7 10 4 15 -4 5 -1 9 5
9 6 0 9 3 6 8 -2 4 4 25 14 47 11 22 19 47 20 56 0 9 3 19 7 23 4 3 8 12 9 19
1 7 11 37 22 67 20 59 22 64 22 81 0 5 4 8 8 5 10 -6 65 48 62 61 -1 4 -9 17
-18 27 -9 11 -11 16 -4 12 8 -5 15 1 21 15 10 28 3 59 -13 59 -6 0 -3 7 6 14
17 13 17 53 1 65 -13 10 -14 31 0 28 16 -3 17 33 0 61 -12 20 -10 26 8 24 8
-1 2 60 -8 67 -8 6 -9 20 -3 39 7 21 -5 50 -30 74 -27 25 -35 66 -17 84 3 3 2
17 -3 29 -9 24 -7 56 6 77 4 6 3 8 -4 4 -11 -7 -11 39 1 50 3 3 2 17 -3 29 -9
24 -7 56 6 77 4 6 3 8 -4 4 -9 -5 -10 31 -2 54 2 3 1 9 0 15 -7 39 -7 65 1 65
6 0 7 6 2 13 -11 18 -12 67 0 67 6 0 6 4 0 13 -12 15 -11 57 1 76 7 10 6 12
-3 6 -10 -6 -11 -3 -1 14 6 12 18 25 25 27 23 9 38 64 21 76 -6 4 -5 12 3 21
15 19 23 57 10 57 -5 0 -9 9 -9 20 0 11 4 20 8 20 4 0 9 11 10 25 1 14 -3 25
-8 25 -6 0 -10 9 -10 20 0 11 4 20 10 20 11 0 8 35 -3 46 -10 11 -8 44 2 44
11 0 5 41 -7 49 -7 6 -8 20 -2 39 7 20 -5 49 -28 69 -26 22 -38 53 -21 53 6 0
7 6 2 13 -11 17 -12 67 -1 67 5 0 6 6 1 13 -11 17 -12 67 -1 67 5 0 6 6 1 13
-11 17 -12 67 -1 67 5 0 6 6 1 13 -11 17 -12 67 -1 67 5 0 6 6 1 13 -11 17
-12 67 -1 67 5 0 6 6 1 13 -11 17 -12 67 -1 67 5 0 6 6 1 13 -11 17 -12 67 -1
67 5 0 6 6 1 13 -16 26 -12 47 17 76 27 27 33 43 29 91 0 8 4 30 9 48 7 19 7
32 1 32 -5 0 -9 9 -9 20 0 11 4 20 8 20 4 0 8 11 8 25 0 14 -4 25 -8 25 -4 0
-8 7 -8 15 0 8 5 15 10 15 11 0 8 30 -6 64 -4 11 -2 21 7 27 12 7 12 9 0 9
-10 0 -11 3 -2 13 14 18 -16 55 -41 49 -19 -4 -26 16 -32 88 -3 42 -59 218
-94 300 -9 19 -15 39 -14 44 2 4 -2 14 -8 20 -5 7 -7 16 -3 19 3 4 1 7 -5 7
-7 0 -12 8 -12 19 0 10 -9 30 -20 44 -11 14 -20 28 -20 32 0 10 -56 138 -97
225 -20 41 -37 77 -37 80 -2 10 -104 205 -130 250 -15 25 -29 53 -33 63 -3 9
-9 17 -14 17 -5 0 -9 5 -9 12 0 12 -89 170 -100 178 -4 3 -11 16 -15 30 -4 14
-10 27 -14 30 -3 3 -26 34 -50 70 -24 36 -62 79 -85 96 l-41 31 -384 2 c-212
1 -387 3 -390 5 -3 2 -19 0 -36 -3z"/>
</g>
</svg>
